<svg height="512pt" viewBox="0 -38 512.001 512" width="512pt" xmlns="http://www.w3.org/2000/svg"><path d="m374.472656 377.117188h-236.945312v-184.210938c0-65.429688 53.042968-118.46875 118.472656-118.46875s118.472656 53.039062 118.472656 118.46875zm0 0" fill="#ff663b"/><path d="m256 74.4375c-5.257812 0-10.4375.347656-15.515625 1.011719 58.101563 7.597656 102.957031 57.289062 102.957031 117.457031v184.210938h31.027344v-184.210938c.003906-65.429688-53.039062-118.46875-118.46875-118.46875zm0 0" fill="#e8572e"/><path d="m314.71875 217.632812c0 32.429688-26.289062 58.71875-58.71875 58.71875s-58.71875-26.289062-58.71875-58.71875c0-32.429687 26.289062-58.71875 58.71875-58.71875s58.71875 26.289063 58.71875 58.71875zm0 0" fill="#cfe0e9"/><path d="m256 232.859375c4.140625 0 7.5-3.359375 7.5-7.5v-41.207031c0-4.144532-3.359375-7.5-7.5-7.5s-7.5 3.355468-7.5 7.5v41.207031c0 4.140625 3.359375 7.5 7.5 7.5zm0 0" fill="#50536e"/><path d="m263.726562 243.386719c0 4.265625-3.460937 7.726562-7.726562 7.726562s-7.726562-3.460937-7.726562-7.726562 3.460937-7.726563 7.726562-7.726563 7.726562 3.460938 7.726562 7.726563zm0 0" fill="#50536e"/><g fill="#ff663b"><path d="m254.652344 0c-4.140625 0-7.5 3.359375-7.5 7.5v26.921875c0 4.140625 3.359375 7.5 7.5 7.5 4.144531 0 7.5-3.359375 7.5-7.5v-26.921875c0-4.140625-3.355469-7.5-7.5-7.5zm0 0"/><path d="m169.128906 29.128906c-2.070312-3.589844-6.660156-4.816406-10.246094-2.746094-3.585937 2.070313-4.816406 6.660157-2.746093 10.246094l13.460937 23.3125c1.390625 2.40625 3.910156 3.75 6.503906 3.75 1.269532 0 2.558594-.324218 3.742188-1.003906 3.585938-2.070312 4.816406-6.660156 2.746094-10.246094zm0 0"/><path d="m122.691406 107.832031-23.3125-13.460937c-3.585937-2.070313-8.171875-.839844-10.242187 2.746094-2.074219 3.585937-.84375 8.175781 2.742187 10.246093l23.3125 13.460938c1.183594.679687 2.472656 1.003906 3.746094 1.003906 2.589844 0 5.113281-1.34375 6.5-3.75 2.074219-3.585937.84375-8.175781-2.746094-10.246094zm0 0"/><path d="m98.519531 185.75h-26.921875c-4.140625 0-7.5 3.359375-7.5 7.5s3.359375 7.5 7.5 7.5h26.921875c4.140625 0 7.5-3.359375 7.5-7.5s-3.359375-7.5-7.5-7.5zm0 0"/><path d="m405.980469 193.25c0 4.140625 3.359375 7.5 7.5 7.5h26.921875c4.140625 0 7.5-3.359375 7.5-7.5s-3.359375-7.5-7.5-7.5h-26.921875c-4.140625 0-7.5 3.355469-7.5 7.5zm0 0"/><path d="m98.519531 268.566406h-26.921875c-4.140625 0-7.5 3.355469-7.5 7.5 0 4.140625 3.359375 7.5 7.5 7.5h26.921875c4.140625 0 7.5-3.359375 7.5-7.5 0-4.144531-3.359375-7.5-7.5-7.5zm0 0"/><path d="m440.402344 268.566406h-26.921875c-4.140625 0-7.5 3.355469-7.5 7.5 0 4.140625 3.359375 7.5 7.5 7.5h26.921875c4.140625 0 7.5-3.359375 7.5-7.5 0-4.144531-3.359375-7.5-7.5-7.5zm0 0"/><path d="m422.863281 97.117188c-2.070312-3.585938-6.65625-4.816407-10.242187-2.746094l-23.3125 13.460937c-3.589844 2.070313-4.816406 6.660157-2.746094 10.246094 1.386719 2.40625 3.910156 3.75 6.5 3.75 1.273438 0 2.5625-.324219 3.746094-1.003906l23.3125-13.460938c3.585937-2.070312 4.816406-6.65625 2.742187-10.246093zm0 0"/><path d="m353.117188 26.382812c-3.585938-2.070312-8.175782-.839843-10.246094 2.746094l-13.460938 23.3125c-2.070312 3.585938-.839844 8.175782 2.746094 10.246094 1.183594.679688 2.472656 1.003906 3.742188 1.003906 2.59375 0 5.113281-1.34375 6.503906-3.75l13.460937-23.3125c2.070313-3.585937.839844-8.175781-2.746093-10.246094zm0 0"/></g><path d="m74.6875 337.132812c0 8.535157-6.917969 15.453126-15.453125 15.453126s-15.453125-6.917969-15.453125-15.453126c0-8.535156 6.917969-15.453124 15.453125-15.453124s15.453125 6.917968 15.453125 15.453124zm0 0" fill="#ffd659"/><path d="m468.21875 337.132812c0 8.535157-6.917969 15.453126-15.453125 15.453126s-15.453125-6.917969-15.453125-15.453126c0-8.535156 6.917969-15.453124 15.453125-15.453124s15.453125 6.917968 15.453125 15.453124zm0 0" fill="#ffd659"/><path d="m59.234375 314.179688c-12.65625 0-22.953125 10.296874-22.953125 22.953124 0 10.03125 6.46875 18.574219 15.453125 21.6875v60.726563c0 4.144531 3.359375 7.5 7.5 7.5 4.144531 0 7.5-3.355469 7.5-7.5v-60.726563c8.984375-3.113281 15.453125-11.65625 15.453125-21.6875 0-12.65625-10.296875-22.953124-22.953125-22.953124zm0 30.90625c-4.382813 0-7.953125-3.566407-7.953125-7.953126 0-4.386718 3.566406-7.953124 7.953125-7.953124s7.953125 3.566406 7.953125 7.953124c0 4.386719-3.566406 7.953126-7.953125 7.953126zm0 0" fill="#50536e"/><path d="m475.71875 337.132812c0-12.65625-10.296875-22.953124-22.953125-22.953124-12.660156 0-22.953125 10.296874-22.953125 22.953124 0 10.03125 6.46875 18.574219 15.453125 21.6875v60.726563c0 4.144531 3.355469 7.5 7.5 7.5 4.140625 0 7.5-3.355469 7.5-7.5v-60.726563c8.980469-3.113281 15.453125-11.65625 15.453125-21.6875zm-22.953125 7.953126c-4.386719 0-7.953125-3.566407-7.953125-7.953126 0-4.386718 3.566406-7.953124 7.953125-7.953124s7.953125 3.566406 7.953125 7.953124c0 4.386719-3.570312 7.953126-7.953125 7.953126zm0 0" fill="#50536e"/><path d="m395.074219 419.546875h-278.148438v-62.960937c0-2.210938 1.792969-4 4-4h270.148438c2.210937 0 4 1.789062 4 4zm0 0" fill="#ffd659"/><path d="m395.074219 419.546875h-30.90625v-66.960937h26.90625c2.207031 0 4 1.789062 4 4zm0 0" fill="#ffbd54"/><path d="m334.292969 419.546875h-61.808594v-67.039063c0-17.070312 13.835937-30.90625 30.902344-30.90625 17.070312 0 30.90625 13.835938 30.90625 30.90625zm0 0" fill="#50536e"/><path d="m303.386719 321.601562c-5.628907 0-10.90625 1.515626-15.453125 4.144532 9.238281 5.34375 15.453125 15.324218 15.453125 26.761718v67.039063h30.90625v-67.039063c0-17.070312-13.835938-30.90625-30.90625-30.90625zm0 0" fill="#484b63"/><path d="m303.386719 338.710938c-4.140625 0-7.5 3.359374-7.5 7.5v30.90625c0 4.140624 3.359375 7.5 7.5 7.5 4.144531 0 7.5-3.359376 7.5-7.5v-30.90625c0-4.140626-3.355469-7.5-7.5-7.5zm0 0" fill="#ff663b"/><path d="m496.546875 435h-481.09375c-8.535156 0-15.453125-6.917969-15.453125-15.453125s6.917969-15.453125 15.453125-15.453125h481.09375c8.535156 0 15.453125 6.917969 15.453125 15.453125s-6.917969 15.453125-15.453125 15.453125zm0 0" fill="#7fcbca"/><path d="m496.546875 404.09375h-30.90625c8.535156 0 15.453125 6.917969 15.453125 15.453125s-6.917969 15.453125-15.453125 15.453125h30.90625c8.535156 0 15.453125-6.917969 15.453125-15.453125s-6.917969-15.453125-15.453125-15.453125zm0 0" fill="#62b5b4"/></svg>