<svg height="512pt" viewBox="0 0 512 512.001" width="512pt" xmlns="http://www.w3.org/2000/svg"><path d="m504.5 145.253906c0 8.285156-6.714844 15-15 15s-15-6.714844-15-15c0-8.28125 6.714844-15 15-15s15 6.71875 15 15zm0 0" fill="#ffd659"/><path d="m37.5 355.257812c0 8.285157-6.714844 15-15 15s-15-6.714843-15-15c0-8.285156 6.714844-15 15-15s15 6.714844 15 15zm0 0" fill="#ffd659"/><path d="m489.5 122.753906c-9.777344 0-18.113281 6.273438-21.210938 15h-70.289062c-4.140625 0-7.5 3.359375-7.5 7.5 0 4.144532 3.359375 7.5 7.5 7.5h70.289062c3.097657 8.730469 11.433594 15 21.210938 15 12.40625 0 22.5-10.09375 22.5-22.5s-10.09375-22.5-22.5-22.5zm0 30c-4.136719 0-7.5-3.363281-7.5-7.5 0-4.136718 3.363281-7.5 7.5-7.5s7.5 3.363282 7.5 7.5c0 4.136719-3.363281 7.5-7.5 7.5zm0 0" fill="#484b63"/><path d="m143 347.757812h-99.289062c-3.097657-8.730468-11.433594-15-21.210938-15-12.40625 0-22.5 10.09375-22.5 22.5s10.09375 22.5 22.5 22.5c9.777344 0 18.113281-6.269531 21.210938-15h99.289062c4.144531 0 7.5-3.359374 7.5-7.5 0-4.140624-3.355469-7.5-7.5-7.5zm-120.5 15c-4.136719 0-7.5-3.363281-7.5-7.5 0-4.136718 3.363281-7.5 7.5-7.5s7.5 3.363282 7.5 7.5c0 4.136719-3.363281 7.5-7.5 7.5zm0 0" fill="#484b63"/><path d="m412.589844 512h-313.175782c-11.378906 0-20.605468-9.226562-20.605468-20.605469v-470.789062c0-11.378907 9.226562-20.605469 20.605468-20.605469h313.171876c11.378906 0 20.605468 9.226562 20.605468 20.605469v470.792969c0 11.375-9.222656 20.601562-20.601562 20.601562zm0 0" fill="#50536e"/><path d="m412.589844 0h-30.90625c11.378906 0 20.605468 9.226562 20.605468 20.605469v470.792969c0 11.378906-9.226562 20.601562-20.605468 20.601562h30.90625c11.378906 0 20.601562-9.222656 20.601562-20.601562v-470.792969c0-11.378907-9.222656-20.605469-20.601562-20.605469zm0 0" fill="#484b63"/><path d="m350.261719 448.101562h-188.519531c-12.234376 0-22.152344-9.917968-22.152344-22.148437v-188.519531c0-12.234375 9.917968-22.152344 22.152344-22.152344h188.519531c12.230469 0 22.148437 9.917969 22.148437 22.152344v188.519531c0 12.230469-9.917968 22.148437-22.148437 22.148437zm0 0" fill="#7fcbca"/><g fill="#bdf9ff"><path d="m257.164062 234.566406c-42.195312 0-76.523437 41.191406-76.523437 91.820313 0 21.300781 5.972656 43.242187 16.816406 61.785156 2.09375 3.574219 6.683594 4.78125 10.261719 2.6875 3.574219-2.089844 4.777344-6.683594 2.6875-10.257813-9.519531-16.28125-14.765625-35.535156-14.765625-54.214843 0-42.359375 27.601563-76.820313 61.523437-76.820313 33.921876 0 61.519532 34.460938 61.519532 76.820313 0 44.941406-29.898438 87.429687-61.519532 87.429687-8.121093 0-16.152343-2.617187-23.871093-7.785156-3.441407-2.300781-8.101563-1.378906-10.40625 2.0625-2.304688 3.441406-1.378907 8.101562 2.0625 10.40625 10.230469 6.847656 21.070312 10.316406 32.214843 10.316406 20.503907 0 40.023438-11.792968 54.957032-33.210937 13.707031-19.652344 21.5625-44.882813 21.5625-69.21875.003906-50.628907-34.324219-91.820313-76.519532-91.820313zm0 0"/><path d="m257.164062 255.609375c-14.214843 0-27.765624 6.984375-38.148437 19.671875-11.070313 13.523438-17.167969 31.671875-17.167969 51.105469 0 19.863281 6.652344 41.261719 17.796875 57.242187 10.699219 15.34375 24.375 24.144532 37.519531 24.144532 13.144532 0 26.820313-8.800782 37.519532-24.144532 11.144531-15.980468 17.796875-37.378906 17.796875-57.242187 0-19.433594-6.097657-37.585938-17.164063-51.105469-2.628906-3.207031-7.355468-3.675781-10.558594-1.054688-3.203124 2.625-3.675781 7.351563-1.050781 10.554688 8.882813 10.851562 13.773438 25.625 13.773438 41.605469 0 16.914062-5.644531 35.105469-15.101563 48.664062-7.738281 11.097657-17.164062 17.722657-25.214844 17.722657-8.050781 0-17.476562-6.625-25.214843-17.722657-9.457031-13.558593-15.101563-31.75-15.101563-48.664062 0-15.980469 4.890625-30.753907 13.773438-41.605469 7.480468-9.136719 16.90625-14.171875 26.542968-14.171875 4.140626 0 7.5-3.355469 7.5-7.5 0-4.140625-3.355468-7.5-7.5-7.5zm0 0"/><path d="m230.554688 318.886719c-4.140626 0-7.5 3.355469-7.5 7.5 0 15.511719 5.375 32.859375 14.027343 45.269531 6.386719 9.15625 14.269531 15.074219 20.082031 15.074219s13.695313-5.917969 20.082032-15.074219c8.652344-12.410156 14.027344-29.753906 14.027344-45.269531 0-14.617188-4.410157-28.054688-12.421876-37.835938-6.277343-7.671875-13.980468-11.894531-21.6875-11.894531-7.707031 0-15.410156 4.222656-21.6875 11.890625-2.625 3.207031-2.152343 7.929687 1.050782 10.554687s7.929687 2.152344 10.554687-1.050781c3.328125-4.066406 7.003907-6.394531 10.082031-6.394531 3.082032 0 6.753907 2.332031 10.082032 6.394531 5.820312 7.109375 9.027344 17.171875 9.027344 28.335938 0 12.605469-4.34375 26.664062-11.332032 36.6875-3.214844 4.613281-6.121094 7.078125-7.777344 8.15625-1.652343-1.078125-4.558593-3.542969-7.773437-8.15625-6.992187-10.023438-11.335937-24.082031-11.335937-36.6875 0-4.144531-3.355469-7.5-7.5-7.5zm0 0"/><path d="m261.625 301.277344c-3.328125-2.464844-8.023438-1.761719-10.488281 1.566406-4.433594 5.988281-6.875 14.347656-6.875 23.542969 0 8.398437 2.234375 17.917969 6.128906 26.109375 1.285156 2.703125 3.976563 4.28125 6.777344 4.28125 1.082031 0 2.175781-.234375 3.21875-.726563 3.738281-1.78125 5.328125-6.253906 3.550781-9.996093-2.925781-6.15625-4.675781-13.511719-4.675781-19.667969 0-5.832031 1.46875-11.292969 3.929687-14.617188 2.464844-3.328125 1.765625-8.027343-1.566406-10.492187zm0 0"/><path d="m398.285156 161.222656h-284.570312c-2.210938 0-4-1.789062-4-4v-95.019531c0-2.207031 1.789062-4 4-4h284.570312c2.210938 0 4 1.792969 4 4v95.019531c0 2.210938-1.789062 4-4 4zm0 0"/></g><path d="m106.222656 281.753906h-26.78125v-51.507812h26.78125c2.277344 0 4.121094 1.84375 4.121094 4.121094v43.269531c0 2.273437-1.84375 4.117187-4.121094 4.117187zm0 0" fill="#ff663b"/><path d="m406.40625 281.753906h26.785156v-51.507812h-26.785156c-2.277344 0-4.121094 1.84375-4.121094 4.121094v43.269531c0 2.273437 1.847656 4.117187 4.121094 4.117187zm0 0" fill="#ff663b"/></svg>