<svg height="512pt" viewBox="0 -37 512 512" width="512pt" xmlns="http://www.w3.org/2000/svg"><path d="m504.5 108.996094c0 8.285156-6.714844 15-15 15s-15-6.714844-15-15c0-8.28125 6.714844-15 15-15s15 6.71875 15 15zm0 0" fill="#ffd659"/><path d="m37.5 206.5c0 8.285156-6.714844 15-15 15s-15-6.714844-15-15 6.714844-15 15-15 15 6.714844 15 15zm0 0" fill="#ffd659"/><path d="m489.5 86.496094c-9.839844 0-18.21875 6.351562-21.265625 15.167968h-93.734375c-4.144531 0-7.5 3.359376-7.5 7.5 0 4.144532 3.355469 7.5 7.5 7.5h93.847656c3.140625 8.644532 11.4375 14.832032 21.152344 14.832032 12.617188 0 22.5-9.882813 22.5-22.5 0-12.40625-10.09375-22.5-22.5-22.5zm0 30c-4.136719 0-7.5-3.363282-7.5-7.5 0-4.132813 3.363281-7.5 7.5-7.5s7.5 3.367187 7.5 7.5c0 4.347656-3.152344 7.5-7.5 7.5zm0 0" fill="#50536e"/><path d="m141.417969 199.167969h-97.652344c-3.046875-8.816407-11.425781-15.167969-21.265625-15.167969-12.40625 0-22.5 10.09375-22.5 22.5s10.09375 22.5 22.5 22.5c9.714844 0 18.011719-6.191406 21.152344-14.832031h97.761718c4.144532 0 7.5-3.359375 7.5-7.5 0-4.144531-3.355468-7.5-7.496093-7.5zm-118.917969 14.832031c-4.136719 0-7.5-3.363281-7.5-7.5s3.363281-7.5 7.5-7.5 7.5 3.363281 7.5 7.5-3.363281 7.5-7.5 7.5zm0 0" fill="#50536e"/><path d="m130 55h252v257h-252zm0 0" fill="#cfe0e9"/><path d="m352 55h30v257h-30zm0 0" fill="#abbfcf"/><g fill="#ff663b"><path d="m279.757812 118.878906c-2.601562-3.222656-7.324218-3.726562-10.546874-1.125-3.226563 2.601563-3.730469 7.320313-1.125 10.546875 2.230468 2.769531 3.414062 6.125 3.414062 9.699219 0 8.546875-6.953125 15.5-15.5 15.5s-15.5-6.953125-15.5-15.5c0-3.574219 1.183594-6.929688 3.414062-9.699219 2.605469-3.226562 2.101563-7.945312-1.125-10.546875-3.222656-2.605468-7.945312-2.097656-10.546874 1.125-4.347657 5.390625-6.742188 12.179688-6.742188 19.121094 0 16.816406 13.683594 30.5 30.5 30.5s30.5-13.683594 30.5-30.5c0-6.941406-2.394531-13.730469-6.742188-19.121094zm0 0"/><path d="m256 144.5c4.144531 0 7.5-3.359375 7.5-7.5v-27c0-4.140625-3.355469-7.5-7.5-7.5s-7.5 3.359375-7.5 7.5v27c0 4.140625 3.355469 7.5 7.5 7.5zm0 0"/><path d="m121 15h270v61c0 2.210938-1.789062 4-4 4h-262c-2.210938 0-4-1.789062-4-4zm0 0"/></g><path d="m361 15h30v61c0 2.210938-1.789062 4-4 4h-26zm0 0" fill="#e8572e"/><path d="m382 312c0 69.585938-56.414062 126-126 126s-126-56.414062-126-126 56.414062-126 126-126 126 56.414062 126 126zm0 0" fill="#50536e"/><path d="m256 186c-5.085938 0-10.097656.308594-15.023438.894531 62.503907 7.425781 110.976563 60.601563 110.976563 125.105469s-48.472656 117.679688-110.976563 125.105469c4.925782.585937 9.9375.894531 15.023438.894531 69.589844 0 126-56.410156 126-126s-56.410156-126-126-126zm0 0" fill="#484b63"/><path d="m312 338c0 30.929688-25.070312 56-56 56s-56-25.070312-56-56 25.070312-56 56-56 56 25.070312 56 56zm0 0" fill="#8cf2ff"/><path d="m256 282c-5.199219 0-10.222656.722656-15 2.046875 23.640625 6.5625 41 28.222656 41 53.953125s-17.359375 47.390625-41 53.953125c4.777344 1.324219 9.800781 2.046875 15 2.046875 30.929688 0 56-25.070312 56-56s-25.070312-56-56-56zm0 0" fill="#6bdae8"/><path d="m282 338c0 14.359375-11.640625 26-26 26s-26-11.640625-26-26 11.640625-26 26-26 26 11.640625 26 26zm0 0" fill="#ffd659"/><path d="m212 15h-60v65c0 16.570312 13.429688 30 30 30s30-13.429688 30-30zm0 0" fill="#50536e"/><path d="m182 110c-5.464844 0-10.585938-1.46875-15-4.023438 8.964844-5.1875 15-14.875 15-25.976562v-65h30v65c0 16.570312-13.429688 30-30 30zm0 0" fill="#484b63"/><path d="m182 48.613281c-4.144531 0-7.5 3.355469-7.5 7.5v30c0 4.140625 3.355469 7.5 7.5 7.5s7.5-3.359375 7.5-7.5v-30c0-4.144531-3.355469-7.5-7.5-7.5zm0 0" fill="#ff663b"/><path d="m22.5 0h467c8.285156 0 15 6.714844 15 15s-6.714844 15-15 15h-467c-8.285156 0-15-6.714844-15-15s6.714844-15 15-15zm0 0" fill="#cfe0e9"/><path d="m489.5 30h-30c8.285156 0 15-6.714844 15-15s-6.714844-15-15-15h30c8.285156 0 15 6.714844 15 15s-6.714844 15-15 15zm0 0" fill="#abbfcf"/></svg>