<svg height="512pt" viewBox="0 0 512 512" width="512pt" xmlns="http://www.w3.org/2000/svg"><path d="m172.863281 172.222656c-5.859375-5.855468-15.355469-5.855468-21.214843 0-5.855469 5.859375-5.855469 15.355469 0 21.214844 5.859374 5.855469 15.355468 5.855469 21.214843 0 5.855469-5.859375 5.855469-15.355469 0-21.214844zm0 0" fill="#ffd659"/><path d="m360.34375 172.496094c-5.855469-5.855469-15.355469-5.855469-21.210938 0-5.859374 5.859375-5.859374 15.355468 0 21.214844 5.855469 5.855468 15.355469 5.855468 21.210938 0 5.859375-5.859376 5.859375-15.355469 0-21.214844zm0 0" fill="#ffd659"/><path d="m504.5 79c0 8.285156-6.714844 15-15 15s-15-6.714844-15-15 6.714844-15 15-15 15 6.714844 15 15zm0 0" fill="#ffd659"/><path d="m37.5 79c0 8.285156-6.714844 15-15 15s-15-6.714844-15-15 6.714844-15 15-15 15 6.714844 15 15zm0 0" fill="#ffd659"/><path d="m200.089844 134.394531-28.152344 28.152344c-8.363281-3.980469-18.679688-2.535156-25.589844 4.375-8.773437 8.773437-8.773437 23.046875 0 31.820313 4.386719 4.386718 10.148438 6.578124 15.910156 6.578124 5.761719 0 11.523438-2.191406 15.910157-6.578124 6.910156-6.910157 8.351562-17.226563 4.375-25.589844l28.152343-28.152344c2.925782-2.929688 2.925782-7.675781 0-10.605469-2.929687-2.929687-7.679687-2.929687-10.605468 0zm-32.527344 53.742188c-2.925781 2.921875-7.683594 2.921875-10.609375 0-2.921875-2.925781-2.921875-7.683594 0-10.609375 1.460937-1.460938 3.382813-2.191406 5.304687-2.191406 1.921876 0 3.839844.730468 5.304688 2.191406 2.921875 2.925781 2.921875 7.683594 0 10.609375zm0 0" fill="#50536e"/><path d="m340.0625 162.816406-28.152344-28.152344c-2.925781-2.929687-7.675781-2.929687-10.605468 0-2.925782 2.929688-2.925782 7.679688 0 10.605469l28.152343 28.152344c-3.976562 8.359375-2.535156 18.679687 4.375 25.589844 4.386719 4.386719 10.148438 6.578125 15.910157 6.578125 5.761718 0 11.523437-2.191406 15.910156-6.578125 8.773437-8.773438 8.773437-23.046875 0-31.820313-6.910156-6.910156-17.226563-8.351562-25.589844-4.375zm14.984375 25.589844c-2.925781 2.921875-7.683594 2.921875-10.609375 0-1.414062-1.417969-2.195312-3.300781-2.195312-5.304688 0-2.003906.78125-3.886718 2.195312-5.300781 1.464844-1.464843 3.382812-2.195312 5.304688-2.195312 1.921874 0 3.84375.730469 5.304687 2.195312 2.921875 2.921875 2.921875 7.679688 0 10.605469zm0 0" fill="#50536e"/><path d="m489.5 56.5c-9.777344 0-18.113281 6.269531-21.210938 15h-133.289062c-4.140625 0-7.5 3.359375-7.5 7.5s3.359375 7.5 7.5 7.5h133.289062c3.097657 8.730469 11.433594 15 21.210938 15 12.40625 0 22.5-10.09375 22.5-22.5s-10.09375-22.5-22.5-22.5zm0 30c-4.136719 0-7.5-3.363281-7.5-7.5s3.363281-7.5 7.5-7.5 7.5 3.363281 7.5 7.5-3.363281 7.5-7.5 7.5zm0 0" fill="#50536e"/><path d="m177 86.5c4.140625 0 7.5-3.359375 7.5-7.5s-3.359375-7.5-7.5-7.5h-133.289062c-3.097657-8.730469-11.433594-15-21.210938-15-12.40625 0-22.5 10.09375-22.5 22.5s10.09375 22.5 22.5 22.5c9.777344 0 18.113281-6.269531 21.210938-15zm-154.5 0c-4.136719 0-7.5-3.363281-7.5-7.5s3.363281-7.5 7.5-7.5 7.5 3.363281 7.5 7.5-3.363281 7.5-7.5 7.5zm0 0" fill="#50536e"/><path d="m335 79c0 43.628906-35.371094 79-79 79s-79-35.371094-79-79 35.371094-79 79-79 79 35.371094 79 79zm0 0" fill="#ffd659"/><path d="m256 0c-5.132812 0-10.140625.507812-15 1.441406 36.453125 7.007813 64 39.058594 64 77.558594s-27.546875 70.550781-64 77.558594c4.859375.933594 9.867188 1.441406 15 1.441406 43.628906 0 79-35.371094 79-79s-35.371094-79-79-79zm0 0" fill="#ffbd54"/><path d="m256 25c-4.140625 0-7.5 3.359375-7.5 7.5v56c0 4.140625 3.359375 7.5 7.5 7.5s7.5-3.359375 7.5-7.5v-56c0-4.140625-3.359375-7.5-7.5-7.5zm0 0" fill="#ff663b"/><path d="m263.5 114.5c0 4.140625-3.359375 7.5-7.5 7.5s-7.5-3.359375-7.5-7.5 3.359375-7.5 7.5-7.5 7.5 3.359375 7.5 7.5zm0 0" fill="#ff663b"/><path d="m338.003906 268.535156c-4.144531 0-7.5 3.359375-7.5 7.5v11.085938h-149.007812v-11.085938c0-4.140625-3.355469-7.5-7.5-7.5-4.140625 0-7.5 3.359375-7.5 7.5v61.449219c0 46.855469 36.148437 85.414063 82.003906 89.238281v57.730469c0 4.140625 3.359375 7.5 7.5 7.5s7.5-3.359375 7.5-7.5v-57.730469c45.855469-3.824218 82.003906-42.382812 82.003906-89.238281v-61.449219c0-4.140625-3.359375-7.5-7.5-7.5zm-82.003906 143.507813c-41.082031 0-74.503906-33.449219-74.503906-74.558594v-35.363281h149.007812v35.363281c0 41.109375-33.421875 74.558594-74.503906 74.558594zm0 0" fill="#484b63"/><path d="m304.179688 253.109375v83.019531c0 2.78125-.230469 5.5-.691407 8.152344-3.867187 22.730469-23.660156 40.027344-47.488281 40.027344s-43.621094-17.296875-47.488281-40.027344c-.460938-2.652344-.691407-5.371094-.691407-8.152344v-83.019531c0-2.78125.230469-5.5.691407-8.148437 3.867187-22.730469 23.660156-40.03125 47.488281-40.03125 13.300781 0 25.351562 5.390624 34.070312 14.109374 6.898438 6.902344 11.710938 15.882813 13.417969 25.921876.460938 2.648437.691407 5.367187.691407 8.148437zm0 0" fill="#cfe0e9"/><path d="m256 204.929688c-5.378906 0-10.546875.894531-15.375 2.519531 19.0625 6.421875 32.800781 24.429687 32.800781 45.65625v83.03125c0 21.226562-13.738281 39.234375-32.800781 45.652343 4.828125 1.628907 9.996094 2.523438 15.375 2.523438 26.605469 0 48.175781-21.570312 48.175781-48.175781v-83.03125c0-26.605469-21.570312-48.175781-48.175781-48.175781zm0 0" fill="#abbfcf"/><g fill="#8c9fb0"><path d="m238.558594 252.460938c0 4.140624-3.359375 7.5-7.5 7.5h-23.238282v-6.851563c0-2.78125.230469-5.5.691407-8.148437h22.546875c4.140625 0 7.5 3.359374 7.5 7.5zm0 0"/><path d="m238.558594 294.621094c0 4.140625-3.359375 7.5-7.5 7.5h-23.238282v-15h23.238282c4.140625 0 7.5 3.359375 7.5 7.5zm0 0"/><path d="m238.558594 336.78125c0 4.140625-3.359375 7.5-7.5 7.5h-22.546875c-.460938-2.652344-.691407-5.371094-.691407-8.152344v-6.847656h23.238282c4.140625 0 7.5 3.359375 7.5 7.5zm0 0"/><path d="m304.179688 253.109375v6.851563h-23.238282c-4.140625 0-7.5-3.359376-7.5-7.5 0-4.140626 3.359375-7.5 7.5-7.5h22.546875c.460938 2.648437.691407 5.367187.691407 8.148437zm0 0"/><path d="m304.179688 287.121094v15h-23.238282c-4.140625 0-7.5-3.359375-7.5-7.5s3.359375-7.5 7.5-7.5zm0 0"/><path d="m304.179688 329.28125v6.847656c0 2.78125-.230469 5.5-.691407 8.152344h-22.546875c-4.140625 0-7.5-3.359375-7.5-7.5s3.359375-7.5 7.5-7.5zm0 0"/><path d="m256 257.980469c-4.140625 0-7.5 3.355469-7.5 7.5v59.449219c0 4.144531 3.359375 7.5 7.5 7.5s7.5-3.355469 7.5-7.5v-59.449219c0-4.144531-3.359375-7.5-7.5-7.5zm0 0"/></g><path d="m299.152344 512h-86.304688c-2.207031 0-4-1.789062-4-4v-16.5c0-5.660156 4.589844-10.25 10.25-10.25h73.804688c5.660156 0 10.25 4.589844 10.25 10.25v16.5c0 2.210938-1.792969 4-4 4zm0 0" fill="#ff663b"/><path d="m292.902344 481.25h-30.753906c5.664062 0 10.25 4.589844 10.25 10.25v20.5h26.753906c2.207031 0 4-1.789062 4-4v-16.5c0-5.660156-4.589844-10.25-10.25-10.25zm0 0" fill="#e8572e"/></svg>