<svg height="512pt" viewBox="0 0 512 512" width="512pt" xmlns="http://www.w3.org/2000/svg"><g fill="#ffd659"><path d="m504.5 116.996094c0 8.285156-6.714844 15-15 15s-15-6.714844-15-15c0-8.28125 6.714844-15 15-15s15 6.71875 15 15zm0 0"/><path d="m37.5 262.160156c0 8.285156-6.714844 15-15 15s-15-6.714844-15-15c0-8.28125 6.714844-15 15-15s15 6.71875 15 15zm0 0"/><path d="m88 33c0 8.285156-6.714844 15-15 15s-15-6.714844-15-15 6.714844-15 15-15 15 6.714844 15 15zm0 0"/><path d="m454 431.683594c0 8.285156-6.714844 15-15 15s-15-6.714844-15-15c0-8.28125 6.714844-15 15-15s15 6.71875 15 15zm0 0"/><path d="m88 404.671875c0 8.28125-6.714844 15-15 15s-15-6.71875-15-15c0-8.285156 6.714844-15 15-15s15 6.714844 15 15zm0 0"/><path d="m378 206.261719c0 8.28125-6.714844 15-15 15s-15-6.71875-15-15c0-8.285157 6.714844-15 15-15s15 6.714843 15 15zm0 0"/></g><path d="m489.5 94.496094c-9.777344 0-18.113281 6.273437-21.210938 15h-166.289062c-4.144531 0-7.5 3.359375-7.5 7.5 0 4.144531 3.355469 7.5 7.5 7.5h166.289062c3.097657 8.730468 11.433594 15 21.210938 15 12.40625 0 22.5-10.089844 22.5-22.5 0-12.40625-10.09375-22.5-22.5-22.5zm0 30c-4.136719 0-7.5-3.363282-7.5-7.5 0-4.132813 3.363281-7.5 7.5-7.5s7.5 3.367187 7.5 7.5c0 4.136718-3.363281 7.5-7.5 7.5zm0 0" fill="#50536e"/><path d="m210 254.660156h-166.289062c-3.097657-8.726562-11.433594-15-21.210938-15-12.40625 0-22.5 10.09375-22.5 22.5 0 12.410156 10.09375 22.5 22.5 22.5 9.777344 0 18.113281-6.269531 21.210938-15h166.289062c4.144531 0 7.5-3.355468 7.5-7.5 0-4.140625-3.355469-7.5-7.5-7.5zm-187.5 15c-4.136719 0-7.5-3.363281-7.5-7.5 0-4.132812 3.363281-7.5 7.5-7.5s7.5 3.367188 7.5 7.5c0 4.136719-3.363281 7.5-7.5 7.5zm0 0" fill="#50536e"/><path d="m210 173.183594h-129.5v-118.972656c8.730469-3.097657 15-11.433594 15-21.210938 0-12.40625-10.09375-22.5-22.5-22.5s-22.5 10.09375-22.5 22.5c0 9.777344 6.269531 18.113281 15 21.210938v126.472656c0 4.144531 3.355469 7.5 7.5 7.5h137c4.144531 0 7.5-3.355469 7.5-7.5 0-4.140625-3.355469-7.5-7.5-7.5zm-137-147.683594c4.136719 0 7.5 3.363281 7.5 7.5s-3.363281 7.5-7.5 7.5-7.5-3.363281-7.5-7.5 3.363281-7.5 7.5-7.5zm0 0" fill="#50536e"/><path d="m446.5 410.476562v-126.476562c0-4.140625-3.355469-7.5-7.5-7.5h-137c-4.144531 0-7.5 3.359375-7.5 7.5s3.355469 7.5 7.5 7.5h129.5v118.976562c-8.730469 3.09375-15 11.429688-15 21.207032 0 12.410156 10.09375 22.5 22.5 22.5s22.5-10.089844 22.5-22.5c0-9.777344-6.269531-18.113282-15-21.207032zm-7.5 28.707032c-4.136719 0-7.5-3.363282-7.5-7.5 0-4.132813 3.363281-7.5 7.5-7.5s7.5 3.367187 7.5 7.5c0 4.136718-3.363281 7.5-7.5 7.5zm0 0" fill="#50536e"/><path d="m210 300.828125h-137c-4.144531 0-7.5 3.359375-7.5 7.5v75.132813c-8.730469 3.097656-15 11.433593-15 21.210937 0 12.40625 10.09375 22.5 22.5 22.5s22.5-10.09375 22.5-22.5c0-9.777344-6.269531-18.113281-15-21.210937v-67.632813h129.5c4.144531 0 7.5-3.359375 7.5-7.5s-3.355469-7.5-7.5-7.5zm-137 111.34375c-4.136719 0-7.5-3.367187-7.5-7.5 0-4.136719 3.363281-7.5 7.5-7.5s7.5 3.363281 7.5 7.5c0 4.132813-3.363281 7.5-7.5 7.5zm0 0" fill="#50536e"/><path d="m302 213.761719h39.789062c3.097657 8.726562 11.433594 15 21.210938 15 12.40625 0 22.5-10.09375 22.5-22.5 0-12.410157-10.09375-22.5-22.5-22.5-9.777344 0-18.113281 6.269531-21.210938 15h-39.789062c-4.144531 0-7.5 3.355469-7.5 7.5 0 4.140625 3.355469 7.5 7.5 7.5zm61-15c4.136719 0 7.5 3.363281 7.5 7.5 0 4.132812-3.363281 7.5-7.5 7.5s-7.5-3.367188-7.5-7.5c0-4.136719 3.363281-7.5 7.5-7.5zm0 0" fill="#50536e"/><path d="m338.414062 429.585938c0 45.511718-36.902343 82.414062-82.414062 82.414062s-82.414062-36.902344-82.414062-82.414062c0-27.875 13.847656-52.519532 35.027343-67.4375v-314.761719c0-26.175781 21.210938-47.386719 47.386719-47.386719 13.082031 0 24.929688 5.304688 33.511719 13.878906 8.570312 8.578125 13.878906 20.425782 13.878906 33.511719v314.757813c21.179687 14.917968 35.023437 39.5625 35.023437 67.4375zm0 0" fill="#cfe0e9"/><path d="m338.414062 429.585938c0 45.511718-36.902343 82.414062-82.414062 82.414062-5.285156 0-10.445312-.515625-15.453125-1.472656 38.128906-7.230469 66.960937-40.714844 66.960937-80.941406 0-.433594-.007812-.863282-.019531-1.296876-.414062-16.257812-8.53125-31.453124-21.890625-40.867187l-13.113281-9.230469v-330.804687c0-13.082031-5.304687-24.929688-13.878906-33.511719-5.027344-5.027344-11.199219-8.921875-18.058594-11.289062 4.84375-1.667969 10.035156-2.585938 15.453125-2.585938 13.082031 0 24.929688 5.304688 33.511719 13.878906 8.570312 8.578125 13.878906 20.425782 13.878906 33.511719v314.757813c21.179687 14.917968 35.023437 39.5625 35.023437 67.4375zm0 0" fill="#abbfcf"/><path d="m256 481.09375c-28.402344 0-51.507812-23.105469-51.507812-51.507812 0-16.738282 8.191406-32.503907 21.914062-42.167969l13.109375-9.234375v-330.796875c0-9.085938 7.394531-16.480469 16.484375-16.480469 4.402344 0 8.546875 1.714844 11.671875 4.835938 3.09375 3.097656 4.8125 7.242187 4.8125 11.644531v330.796875l13.109375 9.234375c13.722656 9.664062 21.914062 25.429687 21.914062 42.167969 0 28.402343-23.105468 51.507812-51.507812 51.507812zm0 0" fill="#8cf2ff"/><path d="m285.59375 387.417969-13.109375-9.234375v-183.121094h-32.96875v183.121094l-13.109375 9.234375c-13.722656 9.664062-21.914062 25.429687-21.914062 42.167969 0 28.402343 23.105468 51.507812 51.507812 51.507812s51.507812-23.105469 51.507812-51.507812c0-16.738282-8.191406-32.503907-21.914062-42.167969zm0 0" fill="#ff663b"/></svg>