<svg height="512pt" viewBox="0 0 512 512" width="512pt" xmlns="http://www.w3.org/2000/svg"><path d="m410.914062 512h-309.828124c-55.828126 0-101.085938-45.257812-101.085938-101.085938v-309.828124c0-55.828126 45.257812-101.085938 101.085938-101.085938h309.828124c55.828126 0 101.085938 45.257812 101.085938 101.085938v309.828124c0 55.828126-45.257812 101.085938-101.085938 101.085938zm0 0" fill="#cfe0e9"/><g fill="#ff663b"><path d="m81.566406 64.421875c0 8.535156-6.917968 15.453125-15.453125 15.453125-8.53125 0-15.453125-6.917969-15.453125-15.453125s6.921875-15.453125 15.453125-15.453125c8.535157 0 15.453125 6.917969 15.453125 15.453125zm0 0"/><path d="m461.339844 64.421875c0 8.535156-6.921875 15.453125-15.453125 15.453125-8.535157 0-15.453125-6.917969-15.453125-15.453125s6.917968-15.453125 15.453125-15.453125c8.53125 0 15.453125 6.917969 15.453125 15.453125zm0 0"/><path d="m81.566406 447.578125c0 8.535156-6.917968 15.453125-15.453125 15.453125-8.53125 0-15.453125-6.917969-15.453125-15.453125s6.921875-15.453125 15.453125-15.453125c8.535157 0 15.453125 6.917969 15.453125 15.453125zm0 0"/><path d="m461.339844 447.578125c0 8.535156-6.921875 15.453125-15.453125 15.453125-8.535157 0-15.453125-6.917969-15.453125-15.453125s6.917968-15.453125 15.453125-15.453125c8.53125 0 15.453125 6.917969 15.453125 15.453125zm0 0"/></g><path d="m256 487.789062c-61.914062 0-120.121094-24.109374-163.902344-67.886718-43.777344-43.78125-67.886718-101.988282-67.886718-163.902344s24.109374-120.121094 67.886718-163.902344c43.78125-43.777344 101.988282-67.886718 163.902344-67.886718s120.121094 24.109374 163.902344 67.886718c43.777344 43.78125 67.886718 101.988282 67.886718 163.902344s-24.109374 120.121094-67.886718 163.902344c-43.78125 43.777344-101.988282 67.886718-163.902344 67.886718zm0 0" fill="#7fcbca"/><path d="m456.886719 256c0 110.945312-89.941407 200.886719-200.886719 200.886719s-200.886719-89.941407-200.886719-200.886719 89.941407-200.886719 200.886719-200.886719 200.886719 89.941407 200.886719 200.886719zm0 0" fill="#50536e"/><path d="m295.746094 114.660156s-8.347656 141.339844-39.671875 141.339844-40.410157-141.339844-40.410157-141.339844c0-20.9375 17.929688-37.910156 40.050782-37.910156 22.101562-.003906 40.03125 16.972656 40.03125 37.910156zm0 0" fill="#ff663b"/><path d="m113.832031 292.3125s126.578125-63.4375 142.242188-36.3125c15.660156 27.125-102.199219 105.664062-102.199219 105.664062-18.132812 10.46875-41.796875 3.429688-52.855469-15.726562-11.054687-19.144531-5.320312-43.15625 12.8125-53.625zm0 0" fill="#ff663b"/><path d="m358.640625 361.027344s-118.230469-77.902344-102.566406-105.027344c15.660156-27.125 142.609375 35.675781 142.609375 35.675781 18.132812 10.46875 23.867187 34.480469 12.808594 53.636719-11.054688 19.144531-34.71875 26.183594-52.851563 15.714844zm0 0" fill="#ff663b"/><path d="m255.714844 76.746094c-5.480469 0-10.703125 1.046875-15.457032 2.933594 14.4375 5.722656 24.585938 19.230468 24.585938 34.980468 0 0-5.492188 92.878906-24.257812 128.050782 4.425781 8.214843 9.558593 13.289062 15.488281 13.289062 31.324219 0 39.671875-141.339844 39.671875-141.339844 0-20.9375-17.929688-37.914062-40.03125-37.914062zm0 0" fill="#e8572e"/><path d="m256.074219 256c-4.964844-8.597656-21.074219-8.089844-40.761719-3.398438 1.304688.921876 2.378906 2.042969 3.160156 3.398438 15.167969 26.269531-94.894531 100.757812-101.855468 105.433594 11.457031 6.4375 25.515624 7.011718 37.257812.230468 0 0 117.859375-78.539062 102.199219-105.664062zm0 0" fill="#e8572e"/><path d="m398.679688 291.675781s-120.984376-59.847656-141.289063-37.4375c42.617187 7.476563 110.386719 41 110.386719 41 18.132812 10.46875 23.867187 34.484375 12.808594 53.640625-3.792969 6.5625-9.066407 11.707032-15.09375 15.207032 16.871093 5.507812 36.292968-1.964844 45.996093-18.773438 11.0625-19.15625 5.328125-43.167969-12.808593-53.636719zm0 0" fill="#e8572e"/><path d="m313.011719 256c0 31.484375-25.527344 57.011719-57.011719 57.011719s-57.011719-25.527344-57.011719-57.011719 25.527344-57.011719 57.011719-57.011719 57.011719 25.527344 57.011719 57.011719zm0 0" fill="#ffd659"/><path d="m256 198.988281c-5.359375 0-10.535156.757813-15.453125 2.140625 23.972656 6.738282 41.558594 28.742188 41.558594 54.871094s-17.582031 48.136719-41.558594 54.871094c4.917969 1.382812 10.09375 2.140625 15.453125 2.140625 31.484375 0 57.011719-25.527344 57.011719-57.011719s-25.527344-57.011719-57.011719-57.011719zm0 0" fill="#ffbd54"/></svg>