<svg height="512pt" viewBox="-61 0 511 512" width="512pt" xmlns="http://www.w3.org/2000/svg"><path d="m369.035156 512h-348.070312c-2.207032 0-4-1.789062-4-4v-60.421875h356.070312v60.421875c0 2.210938-1.792968 4-4 4zm0 0" fill="#7fcbca"/><path d="m369.035156 512h-26.875v-64.421875h30.875v60.421875c0 2.210938-1.792968 4-4 4zm0 0" fill="#62b5b4"/><path d="m148.640625 0h92.71875v473.882812h-92.71875zm0 0" fill="#50536e"/><path d="m179.5625 473.882812h-175.0625c-2.210938 0-4-1.789062-4-4v-465.882812c0-2.210938 1.789062-4 4-4h175.0625zm0 0" fill="#cfe0e9"/><path d="m385.5 473.882812h-175.0625v-473.882812h175.0625c2.210938 0 4 1.789062 4 4v465.882812c0 2.210938-1.789062 4-4 4zm0 0" fill="#cfe0e9"/><path d="m385.5 473.882812h-26.871094v-473.882812h26.871094c2.210938 0 4 1.789062 4 4v465.882812c0 2.210938-1.789062 4-4 4zm0 0" fill="#abbfcf"/><path d="m148.691406 0h30.871094v473.882812h-30.871094zm0 0" fill="#abbfcf"/><path d="m315.503906 176.675781c0 8.535157-6.917968 15.453125-15.453125 15.453125-8.535156 0-15.453125-6.917968-15.453125-15.453125 0-8.535156 6.917969-15.453125 15.453125-15.453125 8.535157 0 15.453125 6.917969 15.453125 15.453125zm0 0" fill="#ffd659"/><path d="m323.003906 176.675781c0-12.65625-10.296875-22.953125-22.953125-22.953125s-22.953125 10.296875-22.953125 22.953125c0 10.03125 6.46875 18.570313 15.453125 21.6875v56.054688c0 4.144531 3.359375 7.5 7.5 7.5s7.5-3.355469 7.5-7.5v-56.054688c8.984375-3.113281 15.453125-11.65625 15.453125-21.6875zm-22.953125 7.953125c-4.382812 0-7.953125-3.566406-7.953125-7.953125s3.566406-7.953125 7.953125-7.953125 7.953125 3.566406 7.953125 7.953125-3.566406 7.953125-7.953125 7.953125zm0 0" fill="#50536e"/><path d="m144.691406 343.453125h-109.320312c-2.207032 0-4-1.792969-4-4v-237.183594c0-2.207031 1.792968-4 4-4h109.320312c2.207032 0 4 1.792969 4 4v237.183594c0 2.207031-1.792968 4-4 4zm0 0" fill="#bdf9ff"/><path d="m354.800781 343.453125h-109.441406c-2.210937 0-4-1.792969-4-4v-81.035156c0-2.207031 1.789063-4 4-4h109.441406c2.207031 0 4 1.792969 4 4v81.035156c0 2.207031-1.792969 4-4 4zm0 0" fill="#50536e"/><path d="m330.957031 343.453125h-61.8125v-26.769531c0-2.210938 1.792969-4 4-4h53.8125c2.207031 0 4 1.789062 4 4zm0 0" fill="#8cf2ff"/><g fill="#ff663b"><path d="m65 154.5h50c4.140625 0 7.5-3.359375 7.5-7.5s-3.359375-7.5-7.5-7.5h-50c-4.140625 0-7.5 3.359375-7.5 7.5s3.359375 7.5 7.5 7.5zm0 0"/><path d="m115 168.5h-50c-4.140625 0-7.5 3.359375-7.5 7.5s3.359375 7.5 7.5 7.5h50c4.140625 0 7.5-3.359375 7.5-7.5s-3.359375-7.5-7.5-7.5zm0 0"/></g></svg>