<svg height="512pt" viewBox="0 0 512.001 512" width="512pt" xmlns="http://www.w3.org/2000/svg"><path d="m242.421875 160.09375h30.902344v221.246094h-30.902344zm0 0" fill="#50536e"/><path d="m256 175.132812c-23.390625 0-45.378906-9.109374-61.917969-25.648437-16.539062-16.539063-25.644531-38.527344-25.644531-61.917969s9.105469-45.378906 25.644531-61.917968c16.539063-16.539063 38.527344-25.648438 61.917969-25.648438s45.378906 9.109375 61.917969 25.648438c16.539062 16.539062 25.648437 38.527343 25.648437 61.917968 0 23.386719-9.109375 45.378906-25.648437 61.917969-16.539063 16.539063-38.527344 25.648437-61.917969 25.648437zm0 0" fill="#cfe0e9"/><path d="m317.917969 25.648438c-16.539063-16.539063-38.527344-25.648438-61.917969-25.648438-5.40625 0-10.734375.507812-15.945312 1.460938 17.316406 3.171874 33.257812 11.472656 45.972656 24.1875 16.539062 16.539062 25.648437 38.527343 25.648437 61.917968s-9.109375 45.378906-25.648437 61.917969c-12.714844 12.714844-28.65625 21.015625-45.972656 24.183594 5.210937.953125 10.539062 1.460937 15.945312 1.460937 23.390625 0 45.378906-9.105468 61.917969-25.644531 16.539062-16.539063 25.648437-38.527344 25.648437-61.917969s-9.109375-45.378906-25.648437-61.917968zm0 0" fill="#abbfcf"/><path d="m312.660156 87.570312c0 15.128907-5.890625 29.359376-16.597656 40.058594-8.910156 8.910156-20.273438 14.492188-32.5625 16.113282-2.460938.328124-4.96875.488281-7.5.488281-2.527344 0-5.039062-.160157-7.5-.488281-12.289062-1.621094-23.648438-7.203126-32.570312-16.113282-10.699219-10.699218-16.589844-24.929687-16.589844-40.058594 0-15.140624 5.890625-29.371093 16.601562-40.070312 10.699219-10.699219 24.929688-16.589844 40.058594-16.589844 15.132812 0 29.359375 5.890625 40.070312 16.589844 10.699219 10.699219 16.589844 24.929688 16.589844 40.070312zm0 0" fill="#7fcbca"/><path d="m271.453125 87.546875c0 8.53125-6.917969 15.453125-15.453125 15.453125s-15.453125-6.921875-15.453125-15.453125c0-8.535156 6.917969-15.453125 15.453125-15.453125s15.453125 6.917969 15.453125 15.453125zm0 0" fill="#ffd659"/><path d="m256 64.589844c-12.660156 0-22.949219 10.300781-22.949219 22.949218 0 10.03125 6.46875 18.582032 15.449219 21.691407v34.511719c2.460938.328124 4.972656.488281 7.5.488281 2.53125 0 5.039062-.160157 7.5-.488281v-34.511719c8.980469-3.109375 15.449219-11.660157 15.449219-21.691407 0-12.648437-10.289063-22.949218-22.949219-22.949218zm0 30.910156c-4.390625 0-7.949219-3.570312-7.949219-7.960938 0-4.378906 3.558594-7.949218 7.949219-7.949218s7.949219 3.570312 7.949219 7.949218c0 4.390626-3.558594 7.960938-7.949219 7.960938zm0 0" fill="#50536e"/><path d="m512 326.566406c-21.335938 0-21.335938 17.867188-42.671875 17.867188s-21.335937-17.867188-42.671875-17.867188-21.335938 17.867188-42.667969 17.867188c-21.335937 0-21.335937-17.867188-42.667969-17.867188-21.335937 0-21.335937 17.867188-42.667968 17.867188-21.332032 0-21.332032-17.867188-42.667969-17.867188-21.328125 0-21.328125 17.867188-42.660156 17.867188s-21.332031-17.867188-42.664063-17.867188c-21.332031 0-21.332031 17.867188-42.667968 17.867188-21.332032 0-21.332032-17.867188-42.664063-17.867188s-21.332031 17.867188-42.664063 17.867188c-21.332031 0-21.332031-17.867188-42.664062-17.867188v127.742188c0 31.863281 25.828125 57.691406 57.691406 57.691406h396.621094c31.859375 0 57.6875-25.828125 57.6875-57.691406zm0 0" fill="#8cf2ff"/><g fill="#6bdae8"><path d="m481.097656 342.0625v112.246094c0 31.863281-25.832031 57.691406-57.691406 57.691406h30.90625c31.859375 0 57.6875-25.828125 57.6875-57.691406v-127.742188c-16.46875 0-20.234375 10.640625-30.902344 15.496094zm0 0"/><path d="m277.476562 397.207031c0-4.140625-3.359374-7.5-7.5-7.5h-173.484374c-4.144532 0-7.5 3.359375-7.5 7.5s3.355468 7.5 7.5 7.5h173.484374c4.140626 0 7.5-3.359375 7.5-7.5zm0 0"/><path d="m415.511719 420.691406h-102.550781c-4.140626 0-7.5 3.355469-7.5 7.5 0 4.140625 3.359374 7.5 7.5 7.5h102.550781c4.144531 0 7.5-3.359375 7.5-7.5 0-4.144531-3.359375-7.5-7.5-7.5zm0 0"/><path d="m295.519531 458.914062h-153.636719c-4.144531 0-7.5 3.359376-7.5 7.5 0 4.144532 3.355469 7.5 7.5 7.5h153.636719c4.140625 0 7.5-3.355468 7.5-7.5 0-4.140624-3.359375-7.5-7.5-7.5zm0 0"/></g></svg>