<svg height="512pt" viewBox="0 -59 512 511" width="512pt" xmlns="http://www.w3.org/2000/svg"><path d="m508 392.5h-504c-2.210938 0-4-1.789062-4-4v-384c0-2.210938 1.789062-4 4-4h504c2.210938 0 4 1.789062 4 4v384c0 2.210938-1.789062 4-4 4zm0 0" fill="#cfe0e9"/><path d="m508 392.5h-26.90625v-392h26.90625c2.210938 0 4 1.789062 4 4v384c0 2.210938-1.789062 4-4 4zm0 0" fill="#abbfcf"/><path d="m30.90625 357.554688v-322.109376c0-2.207031 1.789062-4 4-4h442.1875c2.210938 0 4 1.792969 4 4v322.105469c0 2.210938-1.789062 4-4 4h-442.1875c-2.210938.003907-4-1.789062-4-3.996093zm0 0" fill="#7fcbca"/><g fill="#ffd659"><path d="m191.097656 134.953125c0 8.535156-6.917968 15.453125-15.453125 15.453125-8.53125 0-15.453125-6.917969-15.453125-15.453125 0-8.53125 6.921875-15.449219 15.453125-15.449219 8.535157 0 15.453125 6.917969 15.453125 15.449219zm0 0"/><path d="m351.808594 134.953125c0 8.535156-6.917969 15.453125-15.453125 15.453125-8.535157 0-15.453125-6.917969-15.453125-15.453125 0-8.53125 6.917968-15.449219 15.453125-15.449219 8.535156 0 15.453125 6.917969 15.453125 15.449219zm0 0"/><path d="m191.097656 258.574219c0 8.535156-6.917968 15.453125-15.453125 15.453125-8.53125 0-15.453125-6.917969-15.453125-15.453125 0-8.53125 6.921875-15.453125 15.453125-15.453125 8.535157 0 15.453125 6.921875 15.453125 15.453125zm0 0"/><path d="m351.808594 258.574219c0 8.535156-6.917969 15.453125-15.453125 15.453125-8.535157 0-15.453125-6.917969-15.453125-15.453125 0-8.53125 6.917968-15.453125 15.453125-15.453125 8.535156 0 15.453125 6.921875 15.453125 15.453125zm0 0"/></g><path d="m358.160156 142.105469h122.929688v-15h-123.164063c-2.363281-6.46875-7.558593-11.582031-14.078125-13.839844v-81.820313h-15v81.824219c-6.511718 2.257813-11.703125 7.371094-14.0625 13.835938h-117.570312c-2.359375-6.464844-7.550782-11.578125-14.066406-13.835938v-81.824219h-15v81.820313c-6.515626 2.257813-11.710938 7.371094-14.074219 13.839844h-123.164063v15h122.929688c2.234375 6.796875 7.5625 12.199219 14.3125 14.539062v80.242188c-6.574219 2.277343-11.800782 7.460937-14.132813 14.007812h-123.109375v15h122.988282c2.265624 6.71875 7.558593 12.050781 14.25 14.371094v81.289063h15v-81.289063c6.691406-2.324219 11.980468-7.65625 14.246093-14.371094h117.210938c2.265625 6.714844 7.554687 12.046875 14.242187 14.367188v81.292969h15v-81.289063c6.695313-2.320313 11.988282-7.652344 14.253906-14.371094h122.988282v-15h-123.109375c-2.332031-6.546875-7.558594-11.730469-14.132813-14.007812v-80.242188c6.75-2.339843 12.078125-7.742187 14.3125-14.539062zm-43.429687 108.789062h-117.457031c-2.332032-6.542969-7.554688-11.726562-14.125-14.003906v-80.25c6.746093-2.339844 12.070312-7.742187 14.304687-14.535156h117.097656c2.230469 6.792969 7.554688 12.195312 14.300781 14.535156v80.25c-6.570312 2.28125-11.792968 7.460937-14.121093 14.003906zm21.625-123.890625c4.382812 0 7.953125 3.566406 7.953125 7.949219 0 4.386719-3.570313 7.953125-7.953125 7.953125-4.386719 0-7.953125-3.566406-7.953125-7.953125 0-4.382813 3.566406-7.949219 7.953125-7.949219zm-160.710938 0c4.386719 0 7.953125 3.566406 7.953125 7.949219 0 4.386719-3.566406 7.953125-7.953125 7.953125-4.382812 0-7.953125-3.566406-7.953125-7.953125 0-4.382813 3.570313-7.949219 7.953125-7.949219zm0 139.523438c-4.382812 0-7.953125-3.566406-7.953125-7.953125 0-4.382813 3.570313-7.953125 7.953125-7.953125 4.386719 0 7.953125 3.570312 7.953125 7.953125 0 4.386719-3.566406 7.953125-7.953125 7.953125zm160.710938 0c-4.386719 0-7.953125-3.566406-7.953125-7.953125 0-4.382813 3.566406-7.953125 7.953125-7.953125 4.382812 0 7.953125 3.570312 7.953125 7.953125 0 4.386719-3.570313 7.953125-7.953125 7.953125zm0 0" fill="#50536e"/></svg>