<svg height="512pt" viewBox="-7 0 512 512.00002" width="512pt" xmlns="http://www.w3.org/2000/svg"><path d="m218.5 322.480469h60v189.519531h-60zm0 0" fill="#50536e"/><path d="m248.5 322.480469h30v189.519531h-30zm0 0" fill="#484b63"/><g fill="#8cf2ff"><path d="m257 7.5c0 4.140625-3.359375 7.5-7.5 7.5s-7.5-3.359375-7.5-7.5 3.359375-7.5 7.5-7.5 7.5 3.359375 7.5 7.5zm0 0"/><path d="m257 48c0 4.140625-3.359375 7.5-7.5 7.5s-7.5-3.359375-7.5-7.5 3.359375-7.5 7.5-7.5 7.5 3.359375 7.5 7.5zm0 0"/><path d="m257 88.5c0 4.140625-3.359375 7.5-7.5 7.5s-7.5-3.359375-7.5-7.5 3.359375-7.5 7.5-7.5 7.5 3.359375 7.5 7.5zm0 0"/><path d="m257 129c0 4.140625-3.359375 7.5-7.5 7.5s-7.5-3.359375-7.5-7.5 3.359375-7.5 7.5-7.5 7.5 3.359375 7.5 7.5zm0 0"/><path d="m194.101562 13.808594c-1.070312-4-5.179687-6.375-9.179687-5.300782-4 1.070313-6.375 5.183594-5.304687 9.183594 1.074218 4 5.183593 6.371094 9.183593 5.300782 4-1.074219 6.375-5.183594 5.300781-9.183594zm0 0"/><path d="m204.585938 52.929688c-1.074219-4-5.183594-6.375-9.183594-5.304688-4 1.074219-6.375 5.183594-5.304688 9.183594 1.074219 4 5.183594 6.375 9.183594 5.300781 4-1.070313 6.375-5.179687 5.304688-9.179687zm0 0"/><path d="m215.066406 92.046875c-1.074218-4-5.183594-6.375-9.183594-5.300781-4 1.070312-6.375 5.183594-5.300781 9.183594 1.070313 4 5.179688 6.371093 9.179688 5.300781 4-1.070313 6.375-5.183594 5.304687-9.183594zm0 0"/><path d="m225.546875 131.167969c-1.074219-4-5.183594-6.375-9.183594-5.304688-4 1.074219-6.375 5.183594-5.300781 9.183594 1.070312 4 5.183594 6.375 9.179688 5.300781 4-1.070312 6.375-5.179687 5.304687-9.179687zm0 0"/><path d="m134.992188 36.171875c-2.070313-3.585937-6.660157-4.816406-10.246094-2.746094-3.585938 2.070313-4.8125 6.65625-2.742188 10.246094 2.070313 3.585937 6.65625 4.8125 10.242188 2.742187 3.585937-2.070312 4.816406-6.65625 2.746094-10.242187zm0 0"/><path d="m155.242188 71.246094c-2.074219-3.589844-6.660157-4.816406-10.246094-2.746094-3.585938 2.070312-4.816406 6.65625-2.742188 10.242188 2.070313 3.589843 6.65625 4.816406 10.242188 2.746093 3.585937-2.070312 4.816406-6.65625 2.746094-10.242187zm0 0"/><path d="m175.488281 106.316406c-2.070312-3.585937-6.65625-4.8125-10.242187-2.742187-3.585938 2.070312-4.816406 6.65625-2.746094 10.242187 2.074219 3.585938 6.660156 4.816406 10.246094 2.746094 3.585937-2.070312 4.8125-6.65625 2.742187-10.246094zm0 0"/><path d="m195.738281 141.390625c-2.070312-3.585937-6.65625-4.816406-10.242187-2.746094-3.585938 2.074219-4.816406 6.660157-2.746094 10.246094s6.65625 4.816406 10.246094 2.742187c3.585937-2.070312 4.8125-6.65625 2.742187-10.242187zm0 0"/><path d="m83.683594 73.078125c-2.929688-2.929687-7.679688-2.929687-10.609375 0-2.925781 2.929687-2.925781 7.675781 0 10.605469 2.929687 2.929687 7.679687 2.929687 10.609375 0 2.925781-2.929688 2.925781-7.675782 0-10.605469zm0 0"/><path d="m112.320312 101.714844c-2.929687-2.929688-7.679687-2.929688-10.605468 0-2.929688 2.929687-2.929688 7.675781 0 10.605468 2.925781 2.929688 7.675781 2.929688 10.605468 0 2.929688-2.929687 2.929688-7.675781 0-10.605468zm0 0"/><path d="m140.957031 130.351562c-2.929687-2.929687-7.675781-2.929687-10.605469 0-2.929687 2.929688-2.929687 7.679688 0 10.609376 2.929688 2.925781 7.675782 2.925781 10.605469 0 2.929688-2.929688 2.929688-7.679688 0-10.609376zm0 0"/><path d="m169.59375 158.992188c-2.925781-2.929688-7.675781-2.929688-10.605469 0-2.929687 2.925781-2.929687 7.675781 0 10.605468 2.929688 2.929688 7.679688 2.929688 10.605469 0 2.929688-2.929687 2.929688-7.679687 0-10.605468zm0 0"/><path d="m43.667969 122.007812c-3.585938-2.070312-8.171875-.84375-10.242188 2.742188-2.070312 3.589844-.84375 8.175781 2.742188 10.246094 3.585937 2.070312 8.175781.839844 10.246093-2.746094 2.070313-3.585938.839844-8.171875-2.746093-10.242188zm0 0"/><path d="m78.742188 142.257812c-3.585938-2.070312-8.171876-.84375-10.242188 2.746094-2.074219 3.585938-.84375 8.171875 2.742188 10.242188 3.585937 2.070312 8.171874.84375 10.246093-2.746094 2.070313-3.585938.839844-8.171875-2.746093-10.242188zm0 0"/><path d="m113.816406 162.507812c-3.585937-2.070312-8.175781-.839843-10.246094 2.746094-2.070312 3.585938-.839843 8.171875 2.746094 10.242188 3.585938 2.070312 8.171875.84375 10.242188-2.742188 2.070312-3.589844.84375-8.175781-2.742188-10.246094zm0 0"/><path d="m148.890625 182.757812c-3.589844-2.070312-8.175781-.839843-10.246094 2.746094-2.070312 3.585938-.839843 8.171875 2.746094 10.242188 3.585937 2.074218 8.171875.84375 10.242187-2.742188 2.070313-3.585937.84375-8.171875-2.742187-10.246094zm0 0"/><path d="m17.679688 179.621094c-4-1.074219-8.109376 1.300781-9.179688 5.300781-1.074219 4 1.300781 8.113281 5.300781 9.183594 4 1.070312 8.109375-1.300781 9.183594-5.300781 1.070313-4-1.304687-8.113282-5.304687-9.183594zm0 0"/><path d="m56.800781 190.101562c-4-1.070312-8.113281 1.304688-9.183593 5.304688-1.070313 4 1.300781 8.109375 5.300781 9.183594 4 1.070312 8.113281-1.304688 9.183593-5.304688 1.070313-4-1.300781-8.109375-5.300781-9.183594zm0 0"/><path d="m95.917969 200.585938c-4-1.070313-8.109375 1.300781-9.183594 5.300781-1.070313 4 1.304687 8.113281 5.304687 9.183593 4 1.074219 8.109376-1.300781 9.183594-5.300781 1.070313-4-1.304687-8.113281-5.304687-9.183593zm0 0"/><path d="m135.039062 211.070312c-4-1.074218-8.113281 1.300782-9.183593 5.300782-1.070313 4 1.300781 8.109375 5.300781 9.183594 4 1.070312 8.113281-1.304688 9.183594-5.300782 1.070312-4-1.300782-8.113281-5.300782-9.183594zm0 0"/><path d="m15 249.5c0 4.140625-3.359375 7.5-7.5 7.5s-7.5-3.359375-7.5-7.5 3.359375-7.5 7.5-7.5 7.5 3.359375 7.5 7.5zm0 0"/><path d="m55.5 249.5c0 4.140625-3.359375 7.5-7.5 7.5s-7.5-3.359375-7.5-7.5 3.359375-7.5 7.5-7.5 7.5 3.359375 7.5 7.5zm0 0"/><path d="m96 249.5c0 4.140625-3.359375 7.5-7.5 7.5s-7.5-3.359375-7.5-7.5 3.359375-7.5 7.5-7.5 7.5 3.359375 7.5 7.5zm0 0"/><path d="m136.5 249.5c0 4.140625-3.359375 7.5-7.5 7.5s-7.5-3.359375-7.5-7.5 3.359375-7.5 7.5-7.5 7.5 3.359375 7.5 7.5zm0 0"/><path d="m375.5 249.5c0 4.140625-3.359375 7.5-7.5 7.5s-7.5-3.359375-7.5-7.5 3.359375-7.5 7.5-7.5 7.5 3.359375 7.5 7.5zm0 0"/><path d="m416 249.5c0 4.140625-3.359375 7.5-7.5 7.5s-7.5-3.359375-7.5-7.5 3.359375-7.5 7.5-7.5 7.5 3.359375 7.5 7.5zm0 0"/><path d="m456.5 249.5c0 4.140625-3.359375 7.5-7.5 7.5s-7.5-3.359375-7.5-7.5 3.359375-7.5 7.5-7.5 7.5 3.359375 7.5 7.5zm0 0"/><path d="m497 249.5c0 4.140625-3.359375 7.5-7.5 7.5s-7.5-3.359375-7.5-7.5 3.359375-7.5 7.5-7.5 7.5 3.359375 7.5 7.5zm0 0"/><path d="m371.191406 216.890625c-1.070312-4-5.183594-6.375-9.183594-5.304687-4 1.074218-6.375 5.1875-5.304687 9.1875 1.074219 4 5.183594 6.375 9.1875 5.300781 4-1.070313 6.375-5.183594 5.300781-9.183594zm0 0"/><path d="m410.3125 206.410156c-1.074219-4-5.183594-6.375-9.1875-5.304687-4 1.074219-6.375 5.183593-5.300781 9.1875 1.070312 4 5.183593 6.375 9.183593 5.300781 4-1.070312 6.375-5.183594 5.304688-9.183594zm0 0"/><path d="m449.429688 195.929688c-1.070313-4.003907-5.183594-6.375-9.183594-5.304688s-6.375 5.183594-5.304688 9.183594c1.074219 4.003906 5.183594 6.378906 9.1875 5.304687 4-1.070312 6.375-5.183593 5.300782-9.183593zm0 0"/><path d="m488.550781 185.445312c-1.074219-4-5.183593-6.375-9.1875-5.300781-4 1.070313-6.375 5.183594-5.300781 9.183594 1.070312 4 5.183594 6.375 9.183594 5.304687 4-1.074218 6.375-5.183593 5.304687-9.1875zm0 0"/><path d="m358.609375 186.496094c-2.070313-3.589844-6.65625-4.816406-10.246094-2.746094-3.585937 2.070312-4.816406 6.65625-2.742187 10.246094 2.070312 3.585937 6.65625 4.816406 10.242187 2.742187 3.589844-2.070312 4.816407-6.65625 2.746094-10.242187zm0 0"/><path d="m393.683594 166.246094c-2.070313-3.585938-6.660156-4.816406-10.246094-2.746094s-4.816406 6.660156-2.746094 10.246094c2.074219 3.585937 6.660156 4.816406 10.246094 2.746094 3.585938-2.074219 4.816406-6.660157 2.746094-10.246094zm0 0"/><path d="m428.757812 145.996094c-2.074218-3.585938-6.660156-4.816406-10.246093-2.746094-3.585938 2.074219-4.816407 6.660156-2.746094 10.246094 2.070313 3.585937 6.660156 4.816406 10.246094 2.746094 3.585937-2.070313 4.816406-6.660157 2.746093-10.246094zm0 0"/><path d="m463.828125 125.746094c-2.070313-3.585938-6.65625-4.816406-10.242187-2.746094-3.589844 2.074219-4.816407 6.660156-2.746094 10.246094 2.070312 3.585937 6.65625 4.816406 10.246094 2.746094 3.585937-2.070313 4.8125-6.660157 2.742187-10.246094zm0 0"/><path d="m338.59375 160.40625c-2.929688-2.929688-7.679688-2.929688-10.609375 0s-2.929687 7.675781 0 10.605469c2.929687 2.929687 7.679687 2.929687 10.609375 0 2.925781-2.929688 2.925781-7.675781 0-10.605469zm0 0"/><path d="m367.230469 131.769531c-2.929688-2.929687-7.679688-2.929687-10.605469 0-2.929688 2.925781-2.929688 7.675781 0 10.605469 2.925781 2.929688 7.675781 2.929688 10.605469 0 2.929687-2.929688 2.929687-7.679688 0-10.605469zm0 0"/><path d="m395.867188 103.128906c-2.929688-2.925781-7.675782-2.925781-10.605469 0-2.929688 2.929688-2.929688 7.679688 0 10.609375 2.929687 2.929688 7.675781 2.929688 10.605469 0 2.929687-2.929687 2.929687-7.679687 0-10.609375zm0 0"/><path d="m424.503906 74.492188c-2.925781-2.929688-7.675781-2.929688-10.605468 0-2.929688 2.929687-2.929688 7.679687 0 10.605468 2.929687 2.929688 7.679687 2.929688 10.605468 0 2.929688-2.925781 2.929688-7.675781 0-10.605468zm0 0"/><path d="m312.496094 140.390625c-3.585938-2.070313-8.171875-.84375-10.242188 2.742187-2.074218 3.589844-.84375 8.175782 2.742188 10.246094 3.585937 2.070313 8.171875.839844 10.246094-2.746094 2.070312-3.585937.839843-8.171874-2.746094-10.242187zm0 0"/><path d="m332.746094 105.316406c-3.585938-2.070312-8.171875-.84375-10.242188 2.746094-2.070312 3.585938-.84375 8.171875 2.742188 10.242188 3.589844 2.070312 8.175781.84375 10.246094-2.746094 2.070312-3.585938.839843-8.171875-2.746094-10.242188zm0 0"/><path d="m352.996094 70.242188c-3.585938-2.070313-8.171875-.839844-10.242188 2.746093-2.070312 3.585938-.84375 8.171875 2.746094 10.242188 3.585938 2.070312 8.171875.84375 10.242188-2.742188 2.070312-3.589843.84375-8.175781-2.746094-10.246093zm0 0"/><path d="m373.25 35.167969c-3.589844-2.070313-8.175781-.839844-10.246094 2.746093-2.070312 3.585938-.839844 8.171876 2.746094 10.242188s8.171875.84375 10.242188-2.742188c2.070312-3.585937.84375-8.175781-2.742188-10.246093zm0 0"/><path d="m282.101562 127.800781c-4-1.070312-8.109374 1.300781-9.183593 5.300781-1.070313 4 1.304687 8.113282 5.304687 9.183594 3.996094 1.070313 8.109375-1.300781 9.179688-5.300781 1.074218-4-1.300782-8.113281-5.300782-9.183594zm0 0"/><path d="m292.585938 88.683594c-4-1.074219-8.113282 1.300781-9.183594 5.300781-1.070313 4 1.300781 8.109375 5.300781 9.183594 4 1.070312 8.113281-1.304688 9.183594-5.304688 1.070312-4-1.300781-8.109375-5.300781-9.179687zm0 0"/><path d="m303.066406 49.5625c-4-1.070312-8.109375 1.300781-9.179687 5.300781-1.074219 4 1.300781 8.113281 5.300781 9.183594 4 1.074219 8.109375-1.300781 9.183594-5.300781 1.070312-4-1.304688-8.113282-5.304688-9.183594zm0 0"/><path d="m313.550781 10.441406c-4-1.070312-8.109375 1.304688-9.183593 5.304688-1.070313 4 1.304687 8.109375 5.300781 9.179687 4 1.074219 8.113281-1.300781 9.183593-5.300781 1.074219-4-1.300781-8.109375-5.300781-9.183594zm0 0"/></g><path d="m263.5 292.480469h-30v-66.480469c0-8.285156 6.714844-15 15-15s15 6.714844 15 15zm0 0" fill="#50536e"/><path d="m308.5 281v60c0 5.519531-4.480469 10-10 10h-100c-5.519531 0-10-4.480469-10-10v-60c0-5.519531 4.480469-10 10-10h100c5.519531 0 10 4.480469 10 10zm0 0" fill="#cfe0e9"/><path d="m298.5 271h-29.667969c5.523438 0 10 4.476562 10 10v60c0 5.523438-4.476562 10-10 10h29.667969c5.523438 0 10-4.476562 10-10v-60c0-5.523438-4.476562-10-10-10zm0 0" fill="#abbfcf"/><path d="m263.5 307.480469c0 8.285156-6.714844 15-15 15s-15-6.714844-15-15c0-8.285157 6.714844-15 15-15s15 6.714843 15 15zm0 0" fill="#ffd659"/><path d="m248.5 284.980469c-12.410156 0-22.5 10.089843-22.5 22.5 0 9.78125 6.269531 18.109375 15 21.210937v22.308594h15v-22.308594c8.730469-3.101562 15-11.429687 15-21.210937 0-12.410157-10.089844-22.5-22.5-22.5zm0 30c-4.140625 0-7.5-3.359375-7.5-7.5s3.359375-7.5 7.5-7.5 7.5 3.359375 7.5 7.5-3.359375 7.5-7.5 7.5zm0 0" fill="#50536e"/></svg>