<svg height="512pt" viewBox="-68 0 512 512" width="512pt" xmlns="http://www.w3.org/2000/svg"><path d="m367.5 289.5c0 8.285156-6.714844 15-15 15s-15-6.714844-15-15 6.714844-15 15-15 15 6.714844 15 15zm0 0" fill="#ffd659"/><path d="m37.5 421.570312c0 8.285157-6.714844 15-15 15s-15-6.714843-15-15c0-8.285156 6.714844-15 15-15s15 6.714844 15 15zm0 0" fill="#ffd659"/><path d="m352.5 267c-9.777344 0-18.113281 6.269531-21.210938 15h-88.789062c-4.140625 0-7.5 3.355469-7.5 7.5s3.359375 7.5 7.5 7.5h88.789062c3.097657 8.730469 11.433594 15 21.210938 15 12.40625 0 22.5-10.09375 22.5-22.5s-10.09375-22.5-22.5-22.5zm0 30c-4.136719 0-7.5-3.363281-7.5-7.5s3.363281-7.5 7.5-7.5 7.5 3.363281 7.5 7.5-3.363281 7.5-7.5 7.5zm0 0" fill="#50536e"/><path d="m132.5 414.070312h-88.789062c-3.097657-8.726562-11.433594-15-21.210938-15-12.40625 0-22.5 10.09375-22.5 22.5s10.09375 22.5 22.5 22.5c9.777344 0 18.113281-6.269531 21.210938-15h88.789062c4.140625 0 7.5-3.355468 7.5-7.5 0-4.140624-3.359375-7.5-7.5-7.5zm-110 15c-4.136719 0-7.5-3.363281-7.5-7.5 0-4.136718 3.363281-7.5 7.5-7.5s7.5 3.363282 7.5 7.5c0 4.136719-3.363281 7.5-7.5 7.5zm0 0" fill="#50536e"/><path d="m246.21875 27.816406v67.125h-30.902344v-61.203125c0-1.566406-1.269531-2.832031-2.835937-2.832031h-49.960938c-1.566406 0-2.835937 1.265625-2.835937 2.832031v61.203125h-30.902344v-67.125c0-15.363281 12.453125-27.816406 27.8125-27.816406h61.8125c15.359375 0 27.8125 12.453125 27.8125 27.816406zm0 0" fill="#cfe0e9"/><path d="m218.40625 0h-30.90625c15.359375 0 27.816406 12.453125 27.816406 27.816406v67.125h30.902344v-67.125c0-15.363281-12.453125-27.816406-27.8125-27.816406zm0 0" fill="#abbfcf"/><path d="m262.683594 512h-150.367188c-22.769531 0-41.226562-18.460938-41.226562-41.226562v-364.644532c0-22.769531 18.460937-41.226562 41.226562-41.226562h150.367188c22.769531 0 41.226562 18.457031 41.226562 41.226562v364.644532c0 22.765624-18.457031 41.226562-41.226562 41.226562zm0 0" fill="#50536e"/><path d="m262.683594 64.902344h-30.90625c22.769531 0 41.226562 18.457031 41.226562 41.226562v364.640625c0 22.769531-18.457031 41.230469-41.226562 41.230469h30.90625c22.769531 0 41.226562-18.460938 41.226562-41.230469v-364.640625c0-22.769531-18.457031-41.226562-41.226562-41.226562zm0 0" fill="#484b63"/><path d="m244.160156 151.601562c0 31.292969-25.367187 56.660157-56.660156 56.660157s-56.660156-25.367188-56.660156-56.660157c0-31.292968 25.367187-56.660156 56.660156-56.660156s56.660156 25.367188 56.660156 56.660156zm0 0" fill="#7fcbca"/><path d="m244.160156 288.617188c0 31.292968-25.367187 56.660156-56.660156 56.660156s-56.660156-25.367188-56.660156-56.660156c0-31.292969 25.367187-56.660157 56.660156-56.660157s56.660156 25.367188 56.660156 56.660157zm0 0" fill="#7fcbca"/><path d="m244.160156 425.632812c0 31.289063-25.367187 56.65625-56.660156 56.65625s-56.660156-25.367187-56.660156-56.65625c0-31.292968 25.367187-56.660156 56.660156-56.660156s56.660156 25.367188 56.660156 56.660156zm0 0" fill="#ff663b"/><path d="m210.164062 143.574219c-4.265624 0-7.726562 3.457031-7.726562 7.726562v6.179688c0 4.828125-3.925781 8.757812-8.757812 8.757812h-12.359376c-4.828124 0-8.757812-3.929687-8.757812-8.757812v-6.179688c0-4.269531-3.460938-7.726562-7.726562-7.726562-4.265626 0-7.726563 3.457031-7.726563 7.726562v6.179688c0 13.347656 10.859375 24.210937 24.210937 24.210937h12.359376c13.351562 0 24.210937-10.863281 24.210937-24.210937v-6.179688c0-4.269531-3.460937-7.726562-7.726563-7.726562zm0 0" fill="#50536e"/><path d="m187.5 158.769531c4.265625 0 7.726562-3.460937 7.726562-7.726562v-18.542969c0-4.269531-3.460937-7.726562-7.726562-7.726562s-7.726562 3.460937-7.726562 7.726562v18.542969c0 4.265625 3.460937 7.726562 7.726562 7.726562zm0 0" fill="#50536e"/><path d="m209.351562 403.777344c-3.015624-3.015625-7.90625-3.015625-10.925781 0l-10.925781 10.925781-10.925781-10.925781c-3.019531-3.015625-7.910157-3.015625-10.929688 0-3.015625 3.019531-3.015625 7.910156 0 10.925781l10.925781 10.929687-10.925781 10.925782c-3.015625 3.019531-3.015625 7.910156 0 10.929687 1.511719 1.507813 3.488281 2.261719 5.464844 2.261719s3.953125-.753906 5.460937-2.261719l10.929688-10.929687 10.925781 10.925781c1.511719 1.507813 3.488281 2.261719 5.464844 2.261719s3.953125-.753906 5.460937-2.261719c3.019532-3.015625 3.019532-7.910156 0-10.925781l-10.925781-10.929688 10.925781-10.925781c3.019532-3.015625 3.019532-7.90625 0-10.925781zm0 0" fill="#ffd659"/><path d="m209.742188 270.34375v-.957031c0-12.210938-9.847657-22.148438-21.957032-22.148438s-21.960937 9.9375-21.960937 22.148438v.929687c-4.246094.023438-7.683594 3.46875-7.683594 7.722656v34.617188c0 4.265625 3.457031 7.726562 7.726563 7.726562h43.265624c4.269532 0 7.726563-3.460937 7.726563-7.726562v-34.617188c0-4.058593-3.132813-7.382812-7.117187-7.695312zm-21.957032-7.652344c3.585938 0 6.507813 3.003906 6.507813 6.695313v.925781h-13.015625v-.925781c0-3.691407 2.917968-6.695313 6.507812-6.695313zm13.621094 42.238282h-27.8125v-19.164063h27.8125zm0 0" fill="#50536e"/></svg>