<svg id="Capa_1" enable-background="new 0 0 512 512" height="512" viewBox="0 0 512 512" width="512" xmlns="http://www.w3.org/2000/svg"><g><g><path d="m222.25 212.635-105.752 63.796-31.624 129.252 31.623 89.096h238.451c17.096 0 30.952-13.856 30.952-30.965 0-8.541-3.461-16.292-9.06-21.892-5.599-5.599-13.351-9.06-21.892-9.06h11.108c17.096 0 30.965-13.856 30.965-30.965 0-8.555-3.461-16.28-9.073-21.892-5.599-5.599-13.337-9.06-21.892-9.06h11.121c17.096 0 30.952-13.856 30.952-30.965 0-17.096-13.856-30.952-30.952-30.952h-11.121c17.096 0 30.965-13.856 30.965-30.965 0-8.555-3.461-16.28-9.073-21.892-5.599-5.599-13.337-9.06-21.892-9.06h-59.389l-27.53-27.543c-15.113-15.112-38.586-17.963-56.887-6.933z" fill="#ffcbbe"/><path d="m424.72 146.178c-23.86 23.86-64.308 40.803-64.308 40.803v60.135h-83.005v-60.135s-40.459-16.943-64.319-40.803c0 0-7.272-70.204 25.936-126.218 0 0 9.338-12.457 38.383-12.457 0 0-10.381 52.013 0 84.102 0 0 20.751 10.112 41.502 10.112s41.503-10.112 41.503-10.112c10.37-32.09 0-84.102 0-84.102 29.035 0 38.372 12.457 38.372 12.457 33.208 56.014 25.936 126.218 25.936 126.218z" fill="#eeebef"/><path d="m299.814 167.79v79.326h-22.408v-60.135s-40.459-16.943-64.319-40.803c0 0-7.272-70.204 25.936-126.218 0 0 9.338-12.457 38.383-12.457 0 0-44.052 3.754-39.566 124.411 0-.001 28.185 29.228 61.974 35.876z" fill="#e2dfe2"/><g><path d="m383.726 452.414c1.398 3.531 2.175 7.376 2.175 11.4 0 17.109-13.856 30.965-30.952 30.965h-238.451v-22.803h238.451c13.07 0 24.238-8.103 28.777-19.562z" fill="#eaac9d"/></g><g><path d="m394.834 390.497c1.398 3.531 2.175 7.376 2.175 11.4 0 17.109-13.856 30.965-30.952 30.965h-11.863c-6.297 0-11.401-5.105-11.401-11.401 0-6.297 5.105-11.401 11.401-11.401h11.863c13.07 0 24.238-8.103 28.777-19.563z" fill="#eaac9d"/></g><g><path d="m405.955 328.581c1.398 3.531 2.175 7.376 2.175 11.4 0 17.109-13.856 30.965-30.952 30.965h-11.863c-6.297 0-11.401-5.105-11.401-11.401 0-6.297 5.105-11.401 11.401-11.401h11.863c13.07-.001 24.238-8.104 28.777-19.563z" fill="#eaac9d"/></g><g><path d="m394.847 266.664c1.398 3.531 2.175 7.376 2.175 11.4 0 17.109-13.856 30.965-30.952 30.965h-11.863c-6.297 0-11.401-5.105-11.401-11.401 0-6.297 5.105-11.401 11.401-11.401h11.863c13.07-.001 24.238-8.103 28.777-19.563z" fill="#eaac9d"/></g><path d="m20.211 287.199v193.057c0 13.389 10.854 24.244 24.244 24.244h47.802c13.389 0 24.244-10.854 24.244-24.244v-193.057c0-13.389-10.854-24.244-24.244-24.244h-47.803c-13.389 0-24.243 10.854-24.243 24.244z" fill="#80b4fb"/><path d="m20.204 419.447v60.815c0 13.389 10.862 24.238 24.251 24.238h47.802c13.389 0 24.238-10.849 24.238-24.238v-60.815c0 13.389-10.849 24.251-24.238 24.251h-47.802c-13.389 0-24.251-10.862-24.251-24.251z" fill="#61a2f9"/><g><g><path d="m450.799 139.159 33.265-7.287c10.296-2.255 10.296-16.938 0-19.194l-33.265-7.287c-3.747-.821-6.674-3.747-7.495-7.495l-7.287-33.265c-2.255-10.296-16.938-10.296-19.193 0l-7.287 33.265c-.821 3.747-3.747 6.674-7.495 7.495l-33.265 7.287c-10.296 2.255-10.296 16.938 0 19.194l33.265 7.287c3.747.821 6.674 3.747 7.495 7.495l7.287 33.265c2.255 10.296 16.938 10.296 19.193 0l7.287-33.265c.821-3.748 3.748-6.674 7.495-7.495z" fill="#f6e266"/></g></g></g><path d="m485.668 105.353-33.265-7.287c-.884-.193-1.58-.89-1.773-1.773l-7.286-33.266c-1.784-8.145-8.586-13.617-16.924-13.617-2.009 0-3.926.325-5.708.921-4.159-12.371-9.337-23.839-15.473-34.195-.138-.234-.289-.459-.452-.677-1.186-1.582-12.514-15.459-44.376-15.459-2.245 0-4.372 1.007-5.797 2.742-1.425 1.736-1.996 4.019-1.559 6.221.096.485 9.193 47.133 1.143 77.205-6.106 2.569-20.826 8.047-35.299 8.047-14.394 0-29.169-5.487-35.291-8.053-8.048-30.072 1.049-76.714 1.145-77.196.438-2.203-.133-4.486-1.558-6.222-1.424-1.737-3.551-2.744-5.798-2.744-31.862 0-43.189 13.877-44.376 15.46-.163.218-.314.444-.453.677-6.316 10.664-11.642 22.521-15.826 35.243-1.295 3.935.846 8.174 4.78 9.468 3.938 1.296 8.175-.846 9.468-4.781 3.771-11.459 8.525-22.12 14.14-31.701 1.228-1.257 7.76-7.169 23.312-8.893-2.541 16.958-6.389 53.019 1.818 78.442.628 1.943 2.02 3.546 3.855 4.439.911.444 22.565 10.86 44.784 10.86 22.229 0 43.884-10.416 44.794-10.86 1.836-.893 3.228-2.497 3.855-4.439 8.207-25.424 4.359-61.484 1.818-78.442 15.554 1.725 22.084 7.637 23.312 8.893 6.887 11.751 12.451 25.116 16.584 39.736l-7.052 32.191c-.193.883-.89 1.579-1.772 1.772l-33.266 7.287c-8.146 1.784-13.617 8.585-13.617 16.923s5.473 15.139 13.617 16.923l33.266 7.287c.883.193 1.579.889 1.772 1.773l1.303 5.947c-21.342 15.425-45.743 25.743-45.999 25.851-2.789 1.167-4.604 3.895-4.604 6.918v52.641h-68.014v-52.641c0-3.021-1.815-5.749-4.602-6.917-.38-.159-37.217-15.751-59.96-37.284-.512-7.651-1.447-31.067 3.59-58.66.744-4.075-1.956-7.981-6.031-8.725-4.069-.741-7.98 1.956-8.725 6.031-6.517 35.695-3.671 64.333-3.546 65.534.177 1.714.939 3.314 2.157 4.532 20.057 20.049 50.558 35.091 62.116 40.373v12.006c-16.147-7.932-35.429-7.353-51.519 2.351l-101.371 61.146c-5.822-7.249-14.75-11.901-24.749-11.901h-47.803c-17.501 0-31.739 14.238-31.739 31.739v193.062c0 17.501 14.238 31.739 31.739 31.739h47.806c9.016 0 17.16-3.785 22.944-9.843.42.073.85.119 1.291.119h168.343c4.143 0 7.5-3.358 7.5-7.5s-3.357-7.5-7.5-7.5h-160.844v-6.823c0-.064.005-.128.005-.192v-193.062c0-.039-.003-.077-.003-.115v-6.419l102.132-61.604c13.897-8.384 31.098-7.34 43.771 2.379v18.176h-27.392c-4.143 0-7.5 3.358-7.5 7.5s3.357 7.5 7.5 7.5h123.556c6.262 0 12.155 2.441 16.591 6.869 4.429 4.428 6.868 10.316 6.868 16.58 0 12.936-10.523 23.459-23.459 23.459-4.143 0-7.5 3.358-7.5 7.5s3.357 7.5 7.5 7.5h11.111c12.936 0 23.459 10.523 23.459 23.459 0 12.941-10.523 23.469-23.459 23.469h-11.111c-4.143 0-7.5 3.358-7.5 7.5s3.357 7.5 7.5 7.5c6.27 0 12.161 2.439 16.596 6.874 4.426 4.417 6.863 10.307 6.863 16.585 0 12.936-10.523 23.459-23.459 23.459h-11.112c-4.143 0-7.5 3.358-7.5 7.5s3.357 7.5 7.5 7.5c6.263 0 12.151 2.439 16.59 6.877 4.43 4.415 6.869 10.299 6.869 16.571 0 12.936-10.523 23.459-23.459 23.459h-40.164c-4.143 0-7.5 3.358-7.5 7.5s3.357 7.5 7.5 7.5h40.164c21.206 0 38.459-17.252 38.459-38.459 0-10.219-3.952-19.816-11.125-27.04 13.121-6.13 22.236-19.455 22.236-34.868 0-10.223-3.949-19.824-11.119-27.054 13.119-6.132 22.23-19.458 22.23-34.874 0-15.419-9.12-28.748-22.251-34.875 6.884-6.953 11.14-16.51 11.14-27.043 0-10.271-4-19.926-11.267-27.192-6.834-6.821-15.773-10.761-25.343-11.212v-47.804c7.6-3.476 23.422-11.194 39.079-21.78l2.508 11.447c1.783 8.145 8.584 13.617 16.922 13.618h.001c8.337 0 15.139-5.472 16.923-13.618l7.286-33.264c.193-.884.89-1.581 1.773-1.774l33.265-7.287c8.146-1.784 13.618-8.585 13.618-16.923s-5.472-15.139-13.617-16.922zm-393.409 391.647h-47.806c-9.23 0-16.739-7.509-16.739-16.739v-193.062c0-9.23 7.509-16.739 16.739-16.739h47.806c9.211 0 16.705 7.478 16.736 16.681v29.63c0 .013-.002.026-.002.039v163.548c-.052 9.184-7.536 16.642-16.734 16.642zm390.2-372.454-33.265 7.286c-6.586 1.443-11.773 6.63-13.217 13.216l-7.286 33.265c-.266 1.212-1.03 1.827-2.271 1.827-1.24 0-2.004-.615-2.27-1.827l-7.287-33.264c-1.441-6.586-6.629-11.774-13.216-13.217l-33.266-7.287c-1.212-.265-1.826-1.029-1.826-2.27s.614-2.005 1.826-2.271l33.266-7.286c6.587-1.443 11.774-6.631 13.216-13.216l7.287-33.266c.266-1.212 1.029-1.826 2.27-1.827 1.242 0 2.006.615 2.271 1.827l7.286 33.266c1.443 6.585 6.631 11.773 13.217 13.215l33.265 7.287c1.212.265 1.827 1.029 1.827 2.27s-.615 2.006-1.827 2.272z"/></g></svg>