<svg height="512pt" viewBox="0 0 512.00079 512" width="512pt" xmlns="http://www.w3.org/2000/svg"><path d="m383.261719 326.652344-70.996094-70.964844c31.242187-31.21875 65.019531-65.039062 70.507813-70.476562 31.429687 10.699218 67.59375 3.511718 92.65625-21.550782 35.136718-35.136718 35.136718-92.097656 0-127.234375-35.136719-35.136719-92.097657-35.136719-127.234376 0-24.832031 24.839844-32.121093 60.585938-21.613281 91.746094-4.878906 4.867187-39.085937 39.15625-70.90625 70.964844l-70.394531-70.355469c19.574219-58.140625-23.679688-118.707031-85.277344-118.707031-10.046875 0-19.714844 1.648437-28.730468 4.6875l44.722656 44.375v28.28125l-28.621094 28.617187h-28.277344l-44.375-44.722656c-3.039062 9.015625-4.6875 18.683594-4.6875 28.730469 0 61.597656 60.578125 104.863281 118.707032 85.277343l70.375 70.347657-.300782.300781c-30.648437 30.617188-64.277344 64.195312-70.644531 70.492188-31.226563-10.253907-66.957031-2.976563-91.785156 21.855468-35.140625 35.136719-35.140625 92.09375 0 127.234375 35.136719 35.136719 92.09375 35.136719 127.234375 0 25.089844-25.09375 32.257812-61.320312 21.511718-92.777343 7.226563-7.21875 40.34375-40.335938 70.253907-70.234376l.320312-.320312 71.003907 70.972656c-19.542969 58.019532 23.574218 118.707032 85.28125 118.707032 10.054687 0 19.714843-1.648438 28.738281-4.6875l-43.832031-44.375v-28.277344l27.730468-27.621094h28.269532l44.382812 43.722656c3.039062-9.015625 4.679688-18.683594 4.679688-28.726562 0-61.710938-60.679688-104.824219-118.699219-85.28125zm.28125-254.878906c15.59375-15.59375 40.953125-15.59375 56.550781 0 15.582031 15.582031 15.59375 40.953124 0 56.539062-15.597656 15.59375-40.96875 15.59375-56.550781 0-15.585938-15.585938-15.59375-40.957031 0-56.539062zm-255.269531 368.429687c-15.585938 15.59375-40.957032 15.59375-56.542969 0-15.59375-15.585937-15.59375-40.957031 0-56.542969 15.585937-15.59375 40.957031-15.59375 56.542969 0 15.59375 15.585938 15.59375 40.957032 0 56.542969zm0 0" fill="#ececf1"/><path d="m346.875 336.808594c-5.527344 0-9.996094 4.476562-9.996094 9.996094 0 5.527343 4.46875 9.996093 9.996094 9.996093 5.519531 0 9.996094-4.46875 9.996094-9.996093 0-5.519532-4.476563-9.996094-9.996094-9.996094zm0 0"/><path d="m165.128906 155.171875c-5.527344 0-9.996094 4.46875-9.996094 9.996094 0 5.519531 4.46875 9.996093 9.996094 9.996093 5.519532 0 9.996094-4.476562 9.996094-9.996093 0-5.527344-4.476562-9.996094-9.996094-9.996094zm0 0"/><path d="m447.160156 135.382812c19.511719-19.5 19.507813-51.171874 0-70.679687-19.488281-19.488281-51.199218-19.488281-70.683594 0-19.511718 19.496094-19.511718 51.167969-.003906 70.675781 19.5 19.511719 51.171875 19.515625 70.6875.003906zm-56.550781-56.542968c11.691406-11.6875 30.71875-11.695313 42.414063 0 11.691406 11.691406 11.699218 30.714844.003906 42.402344h-.003906c-11.695313 11.695312-30.71875 11.707031-42.414063 0-11.691406-11.6875-11.699219-30.710938 0-42.402344zm0 0"/><path d="m64.667969 376.589844c-19.511719 19.5-19.523438 51.175781-.003907 70.679687 19.496094 19.511719 51.167969 19.515625 70.675782.003907 0 0 0 0 .003906-.003907 19.507812-19.5 19.515625-51.171875 0-70.675781-19.5-19.507812-51.175781-19.515625-70.675781-.003906zm56.539062 56.542968c-.003906 0-.003906 0-.003906.003907-11.683594 11.691406-30.707031 11.703125-42.402344-.003907-11.695312-11.6875-11.703125-30.703124.003907-42.40625 11.683593-11.691406 30.703124-11.699218 42.402343.007813 11.695313 11.6875 11.695313 30.707031 0 42.398437zm0 0"/><path d="m470.328125 330.792969c-24.792969-17.808594-55.171875-23.304688-84.230469-15.441407l-59.695312-59.660156c15.363281-15.355468 50.253906-50.261718 59.183594-59.171875 33.585937 9.117188 70.792968.328125 96.914062-25.792969 39.066406-39.066406 39.074219-102.296874 0-141.371093-39.070312-39.066407-102.296875-39.074219-141.375.003906-25.441406 25.449219-35.066406 61.726563-25.84375 95.976563-2.6875 2.691406-6.390625 6.398437-10.839844 10.855468-12.390625 12.40625-30.578125 30.621094-48.765625 48.8125l-59.097656-59.066406c2.25-8.414062 3.386719-17.097656 3.386719-25.894531 0-68.132813-67.148438-116.574219-131.886719-94.753907-3.285156 1.105469-5.761719 3.835938-6.542969 7.214844-.785156 3.375.234375 6.914063 2.695313 9.355469l41.769531 41.441406v19.972657l-22.765625 22.765624h-19.972656l-41.441407-41.765624c-2.441406-2.460938-5.984374-3.480469-9.359374-2.699219-3.375.785156-6.105469 3.261719-7.210938 6.546875-13.417969 39.8125-1.058594 86.140625 36.441406 113.078125 24.757813 17.78125 55.128906 23.296875 84.21875 15.425781l59.070313 59.039062c-20.34375 20.316407-48.207031 48.140626-59.65625 59.539063-34.363281-9.011719-70.65625.691406-96.007813 26.042969-39.066406 39.066406-39.074218 102.296875 0 141.371094 39.070313 39.070312 102.300782 39.074218 141.371094 0 26.105469-26.101563 34.9375-63.335938 25.761719-97.019532 4.105469-4.101562 56.613281-56.597656 59.261719-59.246094l59.699218 59.679688c-7.859375 29.0625-2.363281 59.441406 15.449219 84.238281 27.03125 37.628907 73.453125 49.753907 113.0625 36.417969 3.269531-1.101562 5.738281-3.808594 6.539063-7.164062.796874-3.351563-.191407-6.882813-2.617188-9.335938l-40.949219-41.453125v-20.023437l21.863281-21.777344h20.046876l41.464843 40.851562c2.453125 2.414063 5.976563 3.398438 9.332031 2.601563 3.351563-.800781 6.054688-3.265625 7.15625-6.53125 13.367188-39.683594 1.152344-86.0625-36.429687-113.0625zm-151.738281-180.476563c7.804687-7.816406 13.308594-13.324218 15.054687-15.070312 2.691407-2.683594 3.625-6.664063 2.410157-10.269532-9.683594-28.71875-2.324219-59.941406 19.207031-81.480468 31.257812-31.257813 81.839843-31.261719 113.097656 0 31.257813 31.253906 31.261719 81.835937 0 113.09375-21.714844 21.722656-53.273437 29.058594-82.367187 19.160156-3.589844-1.222656-7.5625-.308594-10.253907 2.363281-4.957031 4.90625-32.992187 32.972657-63.476562 63.445313l-42.445313-42.421875c18.179688-18.183594 36.378906-36.40625 48.773438-48.820313zm-140.519532 225.382813c-2.703124 2.695312-3.632812 6.691406-2.398437 10.304687 9.953125 29.128906 2.625 60.734375-19.121094 82.476563-31.253906 31.253906-81.835937 31.261719-113.097656 0-31.253906-31.253907-31.257813-81.835938 0-113.097657 21.460937-21.460937 52.726563-28.902343 81.601563-19.421874 3.5625 1.167968 7.480468.246093 10.148437-2.390626 6.402344-6.335937 40.253906-40.136718 63.917969-63.777343l42.445312 42.425781c-2.269531 2.269531-59.050781 59.039062-63.496094 63.480469zm313.398438 45.203125-31.554688-31.085938c-1.871093-1.84375-4.390624-2.875-7.015624-2.875h-28.269532c-2.644531 0-5.179687 1.046875-7.054687 2.914063l-27.730469 27.621093c-1.882812 1.875-2.941406 4.421876-2.941406 7.082032v28.277344c0 2.632812 1.035156 5.15625 2.882812 7.027343l31.164063 31.542969c-28.277344 3.152344-56.355469-8.449219-73.851563-32.804688-15.246094-21.21875-19.222656-47.542968-10.910156-72.21875 1.210938-3.597656.277344-7.574218-2.40625-10.261718l-197.972656-197.867188c-2.695313-2.695312-6.675782-3.613281-10.257813-2.40625-24.671875 8.3125-50.988281 4.347656-72.195312-10.886718-24.042969-17.273438-35.941407-45.101563-32.855469-73.632813l31.503906 31.75c1.875 1.890625 4.429688 2.957031 7.09375 2.957031h28.28125c2.652344 0 5.195313-1.054687 7.070313-2.929687l28.617187-28.621094c1.875-1.875 2.929688-4.414063 2.929688-7.066406v-28.28125c0-2.664063-1.066406-5.21875-2.957032-7.09375l-31.75-31.503907c47.578126-5.140624 88.683594 32.210938 88.683594 79.503907 0 8.742187-1.398437 17.339843-4.164062 25.550781-1.210938 3.597656-.277344 7.574219 2.40625 10.261719l197.980468 197.867187c2.6875 2.683594 6.660157 3.617188 10.257813 2.402344 24.671875-8.308594 50.992187-4.335938 72.210937 10.90625 24.566407 17.648438 35.917969 45.839844 32.804688 73.871094zm0 0"/><path d="m200.464844 186.367188c-3.90625-3.898438-10.234375-3.898438-14.136719.007812s-3.898437 10.234375.003906 14.136719l125.199219 125.097656c3.902344 3.898437 10.230469 3.898437 14.136719-.007813 3.902343-3.90625 3.898437-10.234374-.007813-14.136718zm0 0"/></svg>