<svg id="Capa_1" enable-background="new 0 0 511.943 511.943" height="512" viewBox="0 0 511.943 511.943" width="512" xmlns="http://www.w3.org/2000/svg"><g><g><path d="m360.385 301.638-12.808-12.808-125.381-125.382-12.808-12.808s16.385-39.98 16.385-73.232c0 0-43.848-53.975-106.009-69.869 0 0-15.183-2.169-35.414 18.063 0 0 43.465 29.014 58.597 58.597 0 0-7.417 21.497-21.874 35.955s-35.955 21.874-35.955 21.874c-29.583-15.133-58.597-58.597-58.597-58.597-20.232 20.232-18.063 35.415-18.063 35.415 15.894 62.16 69.869 106.009 69.869 106.009 33.252 0 73.232-16.385 73.232-16.385l12.808 12.808 125.382 125.382 12.808 12.808s-16.385 39.98-16.385 73.232c0 0 43.848 53.975 106.009 69.869 0 0 15.183 2.169 35.415-18.063 0 0-43.465-29.014-58.597-58.597 0 0 7.417-21.497 21.874-35.955 14.457-14.457 35.955-21.874 35.955-21.874 29.583 15.133 58.597 58.597 58.597 58.597 20.232-20.232 18.063-35.415 18.063-35.415-15.894-62.16-69.869-106.009-69.869-106.009-33.254 0-73.234 16.385-73.234 16.385z" fill="#f6e266"/><path d="m85.63 197.668c-87.178-80.934-59.109-114.237-59.109-114.237-20.232 20.232-18.063 35.415-18.063 35.415 15.894 62.16 69.869 106.009 69.869 106.009 33.252 0 73.232-16.385 73.232-16.385l12.808 12.808 125.382 125.382 12.808 12.808s-16.385 39.98-16.385 73.232c0 0 43.848 53.975 106.009 69.869 0 0 15.183 2.169 35.415-18.063 0 0-33.303 28.068-114.237-59.109 0 0-.732-40.001 18.184-68.176l-26.177-26.177-125.383-125.383-26.177-26.177c-28.175 18.916-68.176 18.184-68.176 18.184z" fill="#f1d333"/><g><path d="m478.192 56.564-20.335-20.334c-7.864-7.864-19.826-9.927-29.869-5.152l-58.431 27.781c-8.421 4.004-14.09 12.169-14.898 21.459l-3.022 34.743c-.536 6.16-3.227 11.934-7.599 16.307l-173.674 173.675 39.015 39.015 173.675-173.675c4.372-4.372 10.147-7.063 16.307-7.599l34.743-3.022c9.289-.808 17.455-6.477 21.458-14.898l27.781-58.431c4.776-10.043 2.713-22.005-5.151-29.869z" fill="#eeebef"/><path d="m358.412 145.743-173.674 173.674-14.379-14.379 173.675-173.675c4.373-4.373 7.069-10.141 7.602-16.306l3.022-34.739c.811-9.287 6.478-17.458 14.898-21.455l58.434-27.783c10.041-4.779 22.002-2.717 29.867 5.149l4.366 4.366c-4.48-4.48-13.433-3.534-22.344 2.375l-51.849 34.369c-7.467 4.949-13.675 12.58-16.306 20.047.001 0-8.938 43.983-13.312 48.357z" fill="#e2dfe2"/><path d="m129.862 486.23c-26.461 24.854-67.749 24.171-93.72-1.202-2.269-2.226-4.523-4.48-6.749-6.749-25.373-25.971-26.056-67.259-1.202-93.72 26.568-28.26 54.217-55.426 82.982-81.489 8.313-7.545 16.726-15.005 25.231-22.358 37.875 26.995 70.31 59.43 97.304 97.304-7.353 8.505-14.813 16.918-22.358 25.231-26.062 28.766-53.227 56.415-81.488 82.983z" fill="#bc95e2"/><path d="m31.804 480.691c.32.334.633.661.953.981-1.131-1.131-2.247-2.261-3.364-3.392-25.373-25.971-26.056-67.259-1.202-93.72 34.248-36.439 70.317-71.057 108.213-103.847 18.93 13.497 36.517 28.353 52.738 44.574-4.615-4.615-10.596-7.865-17.921-9.757-36.069 34.618-71.618 69.755-106.649 105.411-25.429 25.886-39.765 52.155-32.768 59.75z" fill="#ac80dd"/><path d="m211.351 403.248c-.149-.121-.284-.256-.42-.391l-99.367-99.367c-.135-.135-.27-.27-.391-.42 8.313-7.545 16.726-15.005 25.231-22.358 37.875 26.995 70.31 59.43 97.304 97.304-7.352 8.506-14.812 16.919-22.357 25.232z" fill="#ac80dd"/><path d="m253.711 360.076-99.365-99.365c-7.876-7.876-20.646-7.876-28.522 0-7.876 7.876-7.876 20.646 0 28.522l99.365 99.365c7.876 7.876 20.646 7.876 28.522 0 7.876-7.876 7.876-20.646 0-28.522z" fill="#bc95e2"/><path d="m158.199 313.249c-.007 5.17 1.963 10.326 5.902 14.265l-38.28-38.28c-3.933-3.933-5.91-9.095-5.902-14.265-.007-5.156 1.97-10.319 5.909-14.258 7.872-7.872 20.644-7.872 28.516 0l38.28 38.28c-7.872-7.872-20.644-7.872-28.516 0-3.939 3.939-5.909 9.109-5.909 14.258z" fill="#ac80dd"/></g></g><path d="m510.908 390.232c-.039-.268-.092-.533-.158-.795-16.316-63.829-70.12-108.12-72.403-109.974-1.336-1.086-3.006-1.679-4.729-1.679-27.903 0-59.591 10.736-71.384 15.127l-45.533-45.533 71.657-71.657c3.125-3.124 7.262-5.054 11.654-5.434l34.735-3.021c11.887-1.028 22.458-8.362 27.589-19.143l27.784-58.437c6.119-12.883 3.456-28.313-6.626-38.396l-20.331-20.331c-10.082-10.082-25.511-12.746-38.399-6.626l-58.436 27.785c-10.778 5.129-18.113 15.7-19.141 27.584l-3.022 34.743c-.38 4.388-2.31 8.525-5.434 11.649l-71.658 71.658-48.929-48.93c4.392-11.793 15.126-43.474 15.126-71.384 0-1.722-.593-3.392-1.679-4.729-.677-.832-16.869-20.608-43.637-40.021-3.352-2.432-8.043-1.686-10.475 1.668-2.432 3.353-1.685 8.043 1.668 10.475 20.316 14.734 34.388 29.97 39.084 35.329-.85 30.82-15.632 67.295-15.784 67.669-1.146 2.797-.502 6.01 1.636 8.147l52.383 52.383-47.22 47.22-52.383-52.383c-2.137-2.136-5.349-2.781-8.145-1.638-.376.154-36.856 14.934-67.668 15.786-9.687-8.512-51.653-47.756-65.178-99.746-.031-1.466.264-10.042 9.956-22.166 10.089 13.635 32.483 41.341 55.867 53.307 1.817.929 3.936 1.078 5.864.413.944-.326 23.313-8.164 38.81-23.66 15.506-15.506 23.344-37.875 23.67-38.82.666-1.929.517-4.047-.413-5.864-11.966-23.382-39.666-45.774-53.303-55.864 11.933-9.513 20.521-9.95 22.235-9.937 11.976 3.119 24.193 8.005 36.328 14.527 3.648 1.961 8.195.592 10.157-3.055 1.961-3.648.593-8.196-3.056-10.157-13.428-7.218-27.012-12.607-40.376-16.018-.261-.067-.525-.119-.792-.157-1.937-.278-19.531-2.062-41.776 20.183-1.588 1.588-2.381 3.805-2.16 6.04s1.432 4.254 3.3 5.501c.404.27 39.156 26.332 54.519 52.892-2.49 6.077-8.947 20.13-18.94 30.123-9.986 9.987-24.04 16.442-30.111 18.93-26.512-15.341-52.621-54.116-52.89-54.518-1.247-1.868-3.266-3.079-5.501-3.3-2.24-.221-4.451.572-6.041 2.16-22.244 22.245-20.46 39.851-20.184 41.786.039.268.092.534.158.796 16.316 63.819 70.12 108.11 72.403 109.964 1.336 1.086 3.006 1.679 4.729 1.679 27.904 0 59.592-10.736 71.385-15.127l48.93 48.93-14.122 14.122-24.869-24.869c-5.226-5.226-12.174-8.104-19.564-8.104s-14.339 2.878-19.565 8.104c-8.994 8.994-10.482 22.689-4.478 33.248-32.369 28.81-63.745 59.304-93.317 90.766-27.591 29.389-27.02 75.113 1.314 104.109 2.241 2.282 4.544 4.584 6.857 6.857 14.597 14.262 33.755 21.523 52.932 21.523 16.27 0 32.552-5.227 46.074-15.839 3.259-2.557 3.827-7.271 1.271-10.53-2.558-3.259-7.273-3.827-10.53-1.27-10.807 8.48-23.818 12.655-36.829 12.654-15.362-.001-30.722-5.824-42.42-17.254-2.235-2.196-4.475-4.435-6.64-6.639-22.69-23.221-23.171-59.83-1.097-83.342 29.238-31.106 60.261-61.26 92.266-89.751l88.565 88.565c-23.264 26.135-47.675 51.656-72.667 75.922-2.972 2.885-3.042 7.633-.156 10.605 1.471 1.515 3.425 2.275 5.382 2.275 1.882 0 3.767-.704 5.224-2.119 25.28-24.545 49.97-50.361 73.5-76.797 4.124 2.354 8.804 3.614 13.68 3.614 7.391 0 14.339-2.878 19.563-8.104 5.227-5.226 8.104-12.174 8.104-19.565s-2.878-14.339-8.104-19.564l-24.869-24.869 14.122-14.122 45.532 45.532c-4.392 11.793-15.127 43.48-15.127 71.384 0 1.722.593 3.392 1.679 4.729 1.854 2.283 46.146 56.087 109.975 72.403.262.067.527.12.795.158.346.049 1.191.147 2.475.147 5.898 0 21.033-2.062 39.302-20.331 1.587-1.588 2.379-3.804 2.159-6.039s-1.431-4.254-3.297-5.501c-.404-.27-39.179-26.381-54.512-52.894 2.487-6.075 8.938-20.126 18.933-30.113 9.987-9.994 24.041-16.444 30.11-18.93 26.513 15.333 52.623 54.107 52.892 54.51 1.247 1.868 3.266 3.079 5.5 3.299 2.229.22 4.451-.57 6.04-2.159 22.246-22.233 20.461-39.84 20.185-41.775zm-262.5-24.821c2.393 2.393 3.71 5.574 3.71 8.958s-1.317 6.565-3.711 8.958c-2.393 2.393-5.573 3.71-8.957 3.71s-6.565-1.318-8.958-3.71l-99.365-99.365c-4.939-4.939-4.939-12.977-.001-17.916 2.394-2.393 5.575-3.71 8.959-3.71s6.564 1.317 8.957 3.71l99.366 99.365c-.001 0 0 0 0 0zm-53.283-74.496 154.214-154.215c5.617-5.618 9.087-13.063 9.77-20.959l3.022-34.743c.572-6.608 4.649-12.484 10.641-15.335l58.43-27.782c7.167-3.403 15.75-1.922 21.354 3.684l20.332 20.332c5.606 5.606 7.087 14.188 3.685 21.351l-27.782 58.431c-2.852 5.993-8.729 10.071-15.34 10.643l-34.735 3.021c-7.901.684-15.346 4.154-20.964 9.771l-154.214 154.214zm290.986 123.816c-10.09-13.636-32.484-41.337-55.866-53.294-1.817-.929-3.933-1.077-5.859-.414-.944.326-23.317 8.154-38.812 23.659-15.508 15.498-23.337 37.87-23.663 38.814-.664 1.928-.516 4.043.413 5.859 11.958 23.383 39.658 45.775 53.294 55.866-11.735 9.355-20.226 9.938-22.145 9.938-.031 0-.062 0-.09 0-51.96-13.55-91.171-55.481-99.673-65.156.852-30.811 15.632-67.291 15.785-67.665 1.146-2.797.5-6.009-1.637-8.146l-48.985-48.985 47.22-47.221 48.986 48.985c2.138 2.137 5.349 2.783 8.147 1.637.375-.153 36.794-14.935 67.664-15.785 9.682 8.507 51.607 47.716 65.155 99.672.019 1.728-.423 10.309-9.934 22.236z"/></g></svg>