<svg id="Capa_1" enable-background="new 0 0 512 512" height="512" viewBox="0 0 512 512" width="512" xmlns="http://www.w3.org/2000/svg"><g><path d="m474.913 354.897v-60.781c0-16.71-2.15-32.917-6.19-48.361-36.724-18.089-46.057-36.089-46.839-83.551-34.686-36.16-83.492-58.672-137.555-58.672h-56.66c-105.256 0-190.583 85.327-190.583 190.583v60.781c0 12.517-10.147 22.664-22.664 22.664l241.578 21.635 241.577-21.634c-12.517 0-22.664-10.147-22.664-22.664z" fill="#ffe07d"/><path d="m474.913 354.897v-60.781c0-16.71-2.151-32.917-6.19-48.36-24.723-25.256-36.723-55.256-46.841-83.552-34.686-36.159-83.491-58.671-137.552-58.671h-30.905c105.254 0 190.584 85.33 190.584 190.583v60.781z" fill="#ffd064"/><path d="m477.577 377.561-221.577 20.106-241.577-20.106c12.517 0 22.664-10.147 22.664-22.664v-8.241h417.827v8.241c-.001 12.517 10.147 22.664 22.663 22.664z" fill="#ffd064"/><path d="m497.577 377.561h-30.905c-12.517 0-22.664-10.147-22.664-22.664v-8.241h30.905v8.241c0 12.517 10.148 22.664 22.664 22.664z" fill="#fcbd4c"/><path d="m450.741 149.832c18.832 20.321 32.502 46.7 42.051 78.239 1.662 5.491-1.466 11.291-6.972 12.899l-112.832 32.947c-4.602 1.344-9.523-.665-11.87-4.845l-15.176-27.03c-2.35-4.185-1.498-9.437 2.053-12.666l88.216-80.203c4.198-3.818 10.673-3.503 14.53.659z" fill="#ffd064"/><path d="m485.823 240.97-17.06 4.976c-8.314-31.946-24.714-60.626-46.894-83.733l14.34-13.042c4.203-3.812 10.673-3.503 14.536.659 18.832 20.325 32.502 46.698 42.052 78.242 1.659 5.491-1.473 11.291-6.974 12.898z" fill="#fcbd4c"/><path d="m61.259 149.832c-18.832 20.321-32.502 46.7-42.051 78.239-1.662 5.491 1.466 11.291 6.972 12.899l112.832 32.947c4.602 1.344 9.523-.665 11.87-4.845l15.176-27.03c2.35-4.185 1.498-9.437-2.053-12.666l-88.215-80.204c-4.199-3.817-10.674-3.502-14.531.66z" fill="#ffd064"/><path d="m313.661 74.873c11.521 1.78 19.159 12.924 16.883 24.357l-32.616 163.878c-1.916 9.642-10.374 16.586-20.202 16.586h-43.453c-9.828 0-18.286-6.943-20.202-16.586l-32.615-163.878c-2.275-11.433 5.363-22.577 16.883-24.357 9.56-1.477 19.356-2.245 29.331-2.245h56.66c9.975 0 19.77.768 29.331 2.245z" fill="#ffd064"/><path d="m265.679 248.789h-19.358c-2.458 0-4.573-1.737-5.052-4.148l-26.905-135.485c-.601-3.026 1.576-5.884 4.65-6.141 24.657-2.056 49.315-2.056 73.972 0 3.074.256 5.251 3.115 4.65 6.141l2.697 65.975-29.602 69.51c-.479 2.411-2.594 4.148-5.052 4.148z" fill="#ffe07d"/><path d="m330.544 99.227-32.616 163.881c-1.916 9.643-10.374 16.586-20.202 16.586h-30.905c9.828 0 18.286-6.943 20.202-16.586l32.616-163.881c2.277-11.435-5.367-22.571-16.885-24.354-9.56-1.473-19.357-2.246-29.329-2.246h30.905c9.972 0 19.769.773 29.329 2.246 11.518 1.783 19.162 12.919 16.885 24.354z" fill="#fcbd4c"/><path d="m494.199 410.911-176.675 24.257c-20.388 2.799-40.944 4.204-61.524 4.204-20.58 0-41.135-1.405-61.524-4.204l-176.675-24.257c-10.2-1.401-17.801-10.116-17.801-20.412 0-7.145 5.792-12.937 12.937-12.937h486.125c7.145 0 12.937 5.792 12.937 12.937.001 10.296-7.6 19.011-17.8 20.412z" fill="#ffe07d"/><path d="m512 390.5c0 5.151-1.896 9.9-5.079 13.537-3.173 3.647-7.623 6.171-12.723 6.871l-27.022 3.709c3.163-1.391 5.944-3.461 8.169-6.016 3.595-4.131 5.748-9.509 5.748-15.35 0-8.664-7.026-15.69-15.69-15.69h33.656c7.151 0 12.941 5.79 12.941 12.939z" fill="#ffd064"/></g></svg>