<?xml version="1.0" encoding="iso-8859-1"?>
<!-- Generator: Adobe Illustrator 19.0.0, SVG Export Plug-In . SVG Version: 6.00 Build 0)  -->
<svg version="1.1" id="Capa_1" xmlns="http://www.w3.org/2000/svg" xmlns:xlink="http://www.w3.org/1999/xlink" x="0px" y="0px"
	 viewBox="0 0 512 512" style="enable-background:new 0 0 512 512;" xml:space="preserve">
<g>
	<g>
		<path d="M288,42.84V8c0-4.424-3.584-8-8-8h-48c-4.416,0-8,3.576-8,8v34.84C137.752,58.04,72,133.456,72,224
			s65.752,165.96,152,181.16V504c0,4.424,3.584,8,8,8h48c4.416,0,8-3.576,8-8v-98.84c86.248-15.2,152-90.616,152-181.16
			S374.248,58.04,288,42.84z M240,16h32v24.736C266.72,40.28,261.392,40,256,40c-5.392,0-10.72,0.28-16,0.736V16z M272,496h-32
			v-88.736c5.28,0.456,10.608,0.736,16,0.736c5.392,0,10.72-0.28,16-0.736V496z M256,392c-92.64,0-168-75.368-168-168
			S163.36,56,256,56s168,75.368,168,168S348.64,392,256,392z"/>
	</g>
</g>
<g>
	<g>
		<path  fill = "coral" d="M256,72c-83.816,0-152,68.184-152,152s68.184,152,152,152s152-68.184,152-152S339.816,72,256,72z M256,360
			c-74.992,0-136-61.008-136-136S181.008,88,256,88s136,61.008,136,136S330.992,360,256,360z"/>
	</g>
</g>
<g>
	<g>
		<path  fill = "coral" d="M357.656,218.344l-48-48l-11.312,11.312L332.688,216H152v16h180.688l-34.344,34.344l11.312,11.312l48-48
			C360.784,226.528,360.784,221.472,357.656,218.344z"/>
	</g>
</g>
<g>
</g>
<g>
</g>
<g>
</g>
<g>
</g>
<g>
</g>
<g>
</g>
<g>
</g>
<g>
</g>
<g>
</g>
<g>
</g>
<g>
</g>
<g>
</g>
<g>
</g>
<g>
</g>
<g>
</g>
</svg>
